<?xml version="1.0" encoding="UTF-8"?>
<svg width="42px" height="32px" viewBox="0 0 42 32" version="1.1" xmlns="http://www.w3.org/2000/svg" xmlns:xlink="http://www.w3.org/1999/xlink">
    <!-- Generator: Sketch 48.2 (47327) - http://www.bohemiancoding.com/sketch -->
    <title>ASK</title>
    <desc>Created with Sketch.</desc>
    <defs></defs>
    <g id="Symbols" stroke="none" stroke-width="1" fill="none" fill-rule="evenodd">
        <path d="M3.67808058,27.85136 C3.34543595,27.5604509 3.02725413,27.2404509 2.72353512,26.89136 C2.66568388,26.8331782 2.62229545,26.7604509 2.56444421,26.7022691 C2.21733678,26.3095418 1.91361777,25.8877236 1.63882438,25.4368145 C1.3784938,25.0004509 1.13262603,24.5495418 0.930146694,24.0840873 C0.872295455,23.9240873 0.799981405,23.7640873 0.742130165,23.6040873 C-0.0388615702,21.5386327 -0.08225,19.2549964 0.409485537,17.0877236 C0.901221074,14.9204509 1.92808058,12.8986327 3.21527066,11.1095418 C3.57684091,10.6149964 3.93841116,10.1495418 4.32890702,9.69863273 C4.86403099,9.08772364 5.41361777,8.52045091 5.99213017,7.96772364 C6.1946095,7.77863273 6.41155165,7.58954182 6.61403099,7.40045091 C6.97560124,7.08045091 7.3516343,6.76045091 7.72766736,6.45499636 C9.47766736,5.05863273 11.4735351,3.83681455 13.7297335,2.83317818 C14.3805599,2.52772364 15.060312,2.23681455 15.7545269,1.97499636 C17.2731219,1.39317818 18.8061798,0.942269091 20.3247748,0.622269091 C21.5830393,0.360450909 22.8702293,0.17136 24.1574194,0.0695418182 C26.5003946,-0.0904581818 28.8722955,0.0259054545 31.1718822,0.534996364 C32.8929566,0.913178182 34.5706426,1.52408727 36.1037004,2.41136 C36.6388244,2.71681455 37.1450227,3.06590545 37.6367583,3.44408727 C37.8681632,3.61863273 38.114031,3.80772364 38.3309731,4.01136 C38.5479153,4.18590545 38.7648574,4.36045091 38.952874,4.56408727 C39.5169236,5.14590545 40.0086591,5.78590545 40.4280806,6.48408727 C40.7317996,6.99317818 41.006593,7.53136 41.2235351,8.09863273 C42.0189897,10.1349964 42.1202293,12.4186327 41.6574194,14.5859055 C41.1946095,16.7095418 40.1966756,18.8622691 38.721469,20.8695418 C38.4032872,21.29136 38.0706426,21.7131782 37.7235351,22.1204509 C37.3619649,22.5422691 36.9859318,22.9349964 36.6098988,23.3277236 C36.5375847,23.4004509 36.4797335,23.4586327 36.4218822,23.5168145 C36.0892376,23.85136 35.756593,24.17136 35.4094855,24.4768145 C35.1925434,24.6659055 34.9611384,24.8695418 34.7297335,25.0586327 C34.2524607,25.45136 33.7462624,25.8440873 33.240064,26.2077236 C31.7359318,27.2840873 30.1305599,28.2149964 28.452874,29.0004509 C27.7441963,29.3349964 27.0210558,29.6404509 26.2834525,29.9168145 C24.8371715,30.4695418 23.3475021,30.9204509 21.8433698,31.2404509 C20.7152707,31.4877236 19.5871715,31.6622691 18.4446095,31.7786327 C15.899155,32.0259055 13.3247748,31.9240873 10.8227087,31.3568145 C8.49419628,30.8331782 6.42601446,29.9459055 4.7338657,28.7095418 C4.35783264,28.4331782 4.01072521,28.1568145 3.67808058,27.85136 Z M35.3642314,10.4196073 C35.320843,10.3905164 35.2485289,10.4050618 35.1328264,10.4050618 C34.9158843,10.4196073 33.6142314,10.5650618 33.035719,10.6232436 C32.804314,10.6523345 32.7030744,10.7396073 32.5873719,10.9141527 C32.4861322,11.0886982 29.5935702,15.9905164 29.5935702,15.9905164 C29.5935702,15.9905164 31.7919174,4.15051636 31.8497686,3.83051636 C31.9220826,3.40869818 31.8497686,3.32142545 31.5315868,3.32142545 C31.1989421,3.32142545 29.7092727,3.48142545 29.4778678,3.52506182 C29.1886116,3.56869818 29.0873719,3.65597091 29.0150579,4.03415273 C28.9716694,4.31051636 25.7464628,21.8232436 25.6886116,22.1432436 C25.6018347,22.6377891 25.6162975,22.6523345 26.0646446,22.5796073 C26.3249752,22.5359709 27.5977025,22.3323345 28.1472893,22.2450618 C28.3063802,22.2159709 28.393157,22.2159709 28.4510083,21.9686982 C28.4943967,21.7214255 29.4778678,16.58688 29.4778678,16.58688 C29.4778678,16.58688 31.1266281,21.2850618 31.1989421,21.4886982 C31.2712562,21.6777891 31.3146446,21.7359709 31.5605124,21.70688 C32.1534876,21.6050618 33.5274545,21.38688 33.6576198,21.3723345 C33.8890248,21.3286982 33.9324132,21.2705164 33.8600992,21.06688 C33.7877851,20.8632436 32.1100992,15.9905164 32.1100992,15.9905164 C32.1100992,15.9905164 35.2340661,10.8559709 35.3497686,10.6523345 C35.4365455,10.5505164 35.4220826,10.4632436 35.3642314,10.4196073 Z M25.2258017,11.8014255 C24.820843,11.6559709 23.9964628,11.3941527 23.0274545,11.5105164 C21.5522479,11.6850618 20.5253884,12.3396073 19.9902645,13.3577891 C19.4551405,14.3905164 19.5274545,15.5396073 19.7154711,16.1214255 C19.9034876,16.6886982 20.3662975,17.3577891 21.0026612,17.9396073 C22.4200165,19.2196073 22.3910909,20.1941527 22.1886116,20.6159709 C21.9427438,21.1250618 21.2340661,21.5323345 20.2650579,21.3286982 C19.2960496,21.1105164 18.9923306,20.4705164 18.9923306,20.4705164 C18.9923306,20.4705164 18.5150579,22.1577891 18.4138182,22.4923345 C18.2981157,22.9286982 18.3415041,23.0596073 18.7464628,23.2341527 C19.2960496,23.46688 20.3373719,23.6996073 22.0295207,23.3650618 C23.1865455,23.1323345 24.2278678,22.2159709 24.7340661,21.2414255 C25.2547273,20.2377891 25.5729091,18.2886982 23.9386116,16.8050618 C22.6224959,15.5977891 22.4778678,15.3941527 22.3332397,15.1323345 C22.0729091,14.6523345 22.2753884,14.0996073 22.535719,13.8086982 C22.7526612,13.5323345 23.0419174,13.4014255 23.5047273,13.4305164 C23.9675372,13.4596073 24.7919174,14.0850618 24.7919174,14.0850618 C24.7919174,14.0850618 25.3848926,12.3832436 25.428281,12.2523345 C25.500595,12.0486982 25.4572066,11.8886982 25.2258017,11.8014255 Z M16.0997686,5.88142545 C16.0563802,5.34324364 15.6369587,5.44506182 15.4489421,5.83778909 C14.8125785,7.16142545 6.12042975,25.2123345 6.01919008,25.4450618 C5.86009917,25.7650618 5.99026446,25.8232436 6.29398347,25.7796073 C6.51092562,25.7505164 8.43447934,25.4305164 9.01299174,25.3432436 C9.20100826,25.3141527 9.27332231,25.2705164 9.33117355,25.1250618 C9.36009917,25.0523345 10.7340661,21.7941527 10.7340661,21.7941527 L14.5667107,21.1832436 C14.5667107,21.1832436 14.5956364,23.6850618 14.6100992,24.1214255 C14.6100992,24.3105164 14.624562,24.42688 14.9427438,24.3832436 C15.304314,24.3250618 16.8084463,24.0777891 17.0253884,24.0486982 C17.4014215,23.9905164 17.4448099,23.8886982 17.4158843,23.5396073 C17.3869587,23.2777891 16.2010083,7.14688 16.0997686,5.88142545 Z M11.7609256,19.2341527 L14.5522479,12.6159709 L14.5811736,18.7832436 L11.7609256,19.2341527 Z" id="ASK" fill="#FFFFFF"></path>
    </g>
</svg>