<?xml version="1.0" encoding="UTF-8"?>
<svg width="170px" height="48px" viewBox="0 0 170 48" version="1.1" xmlns="http://www.w3.org/2000/svg" xmlns:xlink="http://www.w3.org/1999/xlink">
    <!-- Generator: Sketch 48.2 (47327) - http://www.bohemiancoding.com/sketch -->
    <title>百度搜索-深</title>
    <desc>Created with Sketch.</desc>
    <defs></defs>
    <g id="Symbols" stroke="none" stroke-width="1" fill="none" fill-rule="evenodd">
        <g id="百度搜索-深" fill="#FFFFFF" fill-rule="nonzero">
            <g id="百度-(1)" transform="translate(10.000000, 0.000000)">
                <path d="M44.3356659,22.0591955 L49.5557706,22.0591955 L49.5557706,26.661488 L44.3356659,26.661488 L44.3356659,22.0591955 Z M44.3356659,28.6757229 L49.5557706,28.6757229 L49.5557706,46.7452837 L44.3356659,46.7452837 L44.3356659,28.6757229 Z M35.8383653,28.6932889 L24.6900475,28.6640122 L24.6900475,32.464124 L34.4631135,32.464124 C34.4631135,32.464124 36.7981155,33.0379468 36.7981155,34.5076356 L36.7981155,35.8485071 L27.9496869,35.8485071 C27.9496869,35.8485071 24.4676664,36.1705505 23.3499085,40.3219823 C23.156788,42.2718085 23.414282,43.2320833 23.543029,43.577548 C23.671776,43.9347234 24.6958996,46.2300143 27.7273058,46.8038371 L41.8133955,46.8038371 L41.8133955,33.8694042 C41.8133955,33.8694042 41.1404,29.4252056 35.8383653,28.6932889 Z M36.7981155,43.2320833 L29.6760668,43.2320833 C28.7163166,42.8456313 28.4003013,42.2073998 28.3359278,42.0493058 C28.2715543,41.8912118 28.0491732,41.3173891 28.3066672,40.737711 C28.8801764,39.6193422 29.8399266,39.3617075 29.8399266,39.3617075 L36.8039677,39.3617075 L36.8039677,43.2320833 L36.7981155,43.2320833 Z M18.4107063,34.4842143 C21.7464234,32.7393247 21.3250697,28.3361135 21.3250697,28.3361135 C20.9563852,21.5907687 12.7282829,21.9069568 12.7282829,21.9069568 L0.0115927591,21.9069568 L0.0115927591,47.0263398 L14.3727329,47.0263398 C22.8115121,46.9970631 22.2087421,40.403957 22.2087421,40.403957 C22.3550455,36.0007458 18.4107063,34.4842143 18.4107063,34.4842143 Z M5.48333933,26.802016 L13.7582587,26.802016 C13.7582587,26.802016 15.5607164,26.7258967 16.1576342,28.1545982 C16.1576342,28.1545982 16.5146145,29.6652743 15.9176967,30.7075238 C15.9176967,30.7075238 15.3324831,31.7731946 13.8050758,32.0015526 L5.48333933,32.0015526 L5.48333933,26.802016 Z M16.151782,41.1710057 C16.151782,41.1710057 15.6075334,42.1195698 14.0859783,42.3537832 L14.0859783,42.3596385 L5.48333933,42.3596385 L5.48333933,36.9551652 L14.0391612,36.9551652 L14.3317679,37.0078632 C14.3317679,37.0078632 15.9645137,37.3064853 16.5555794,38.7761741 C16.5555794,38.7761741 16.8950032,40.1463223 16.151782,41.1710057 Z M67.8027286,14.8337132 C70.6819792,14.8337132 73.0052769,11.5195942 73.0052769,7.41500503 C73.0052769,3.32212656 70.6819792,0.00800750533 67.8027286,0.00800750533 C64.9293302,0.00800750533 62.5943281,3.32212656 62.5943281,7.41500503 C62.5943281,11.5195942 64.9293301,14.8337132 67.8027286,14.8337132 Z M80.2034034,15.319706 C84.0541084,15.8232647 86.5237096,11.7128202 87.0211411,8.59778254 C87.5244248,5.48860017 85.0431194,1.87585906 82.3160243,1.25519365 C79.5889292,0.628672915 76.1829864,5.00260744 75.8728232,7.85415509 C75.4924344,11.3439342 76.3644026,14.8278579 80.2034034,15.319706 Z M58.1291489,25.2796292 C63.3434015,24.1612604 62.629441,17.9253296 62.4714333,16.5610368 C62.2197915,14.4648272 59.7501904,10.7993881 56.4027689,11.0862995 C52.1833794,11.4610409 51.5689051,17.5564436 51.5689052,17.5564436 C50.9953959,20.3787146 52.9266006,26.4038533 58.1291489,25.2796292 Z M89.6311934,14.5760786 C85.0372672,14.5760786 84.4169408,18.8036297 84.4169408,21.7957054 C84.4169408,24.6531084 84.6627305,28.6405909 90.3685625,28.5117735 C96.0743944,28.3888115 95.4540681,22.0416295 95.4540681,20.5426639 C95.4540681,19.0612644 94.2192675,14.5760785 89.6311934,14.5760786 Z M63.6652689,36.1237078 C63.5131134,36.5628579 63.1736895,37.6812266 63.4662963,38.6590674 C64.0515098,40.8489624 65.9476017,40.9426477 65.9476017,40.9426477 L68.6805489,40.9426477 L68.6805489,34.2675669 L65.7603334,34.2675669 C64.4436029,34.6598743 63.8057202,35.6845577 63.6652689,36.1237078 Z" id="Shape"></path>
                <path d="M89.6311934,33.6293355 C89.6311934,33.6293355 83.6795718,29.0211876 80.2034034,24.0382984 C75.4924344,16.6957095 68.7975916,19.6819299 66.5620759,23.4117776 C64.3324124,27.1474807 60.8620961,29.5130357 60.3646646,30.1395564 C59.8672331,30.7485112 53.1723902,34.3671076 54.6588326,40.9719244 C56.145275,47.5708858 61.3595276,47.4362131 61.3595276,47.4362131 C61.3595276,47.4362131 65.2043805,47.8168098 69.6695598,46.8155477 C74.1288869,45.8259962 77.9678877,47.0673271 77.9678877,47.0673271 C77.9678877,47.0673271 88.3905407,50.5571062 91.2405307,43.8293274 C94.0905206,37.1074039 89.6311935,33.6293355 89.6311934,33.6293355 Z M71.799737,43.630246 L65.0288165,43.630246 C62.0968966,43.050568 60.9323217,41.0480437 60.7918705,40.702579 C60.6455671,40.3629696 59.8145639,38.7527528 60.253474,36.0241671 C61.5175353,31.9312886 65.1283028,31.6326666 65.1283027,31.6326666 L68.7390703,31.6326666 L68.7390703,27.2001787 L71.8055892,27.2470214 L71.8055892,43.630246 L71.799737,43.630246 Z M84.422793,43.5834033 L76.6218966,43.5834033 C73.6021947,42.8046439 73.4617435,40.6615916 73.4617435,40.6615916 L73.4617435,32.0308293 L76.6218966,31.9781313 L76.6218966,39.7364489 C76.815017,40.562051 77.8391407,40.7084344 77.8391407,40.7084343 L81.0578152,40.7084343 L81.0578152,32.0308293 L84.422793,32.0308293 L84.422793,43.5834033 Z M116.668059,42.0610165 L116.668059,39.0045321 L102.166467,39.0045321 L102.166467,43.0856999 L115.573709,43.0856999 C116.433973,43.2320833 116.749989,42.9217506 116.668059,42.0610165 Z M102.166467,35.391791 L116.744136,35.391791 L116.744136,31.3106232 L102.166467,31.3106232 L102.166467,35.391791 Z M96.6830165,22.4515028 L122.081284,22.4515028 L122.081284,25.9002946 L112.513043,25.9002946 L111.962942,28.0960449 L120.899153,28.0960449 L120.899153,43.2320833 C121.05716,45.3517142 119.880881,46.3705423 117.294237,46.2885677 L97.8592957,46.2885677 L97.8592957,28.1780195 L106.719429,28.1780195 L107.187599,25.9822692 L96.6830165,25.9822692 L96.6830165,22.4515028 Z M135.874767,38.6883441 L137.519217,39.6310529 L139.245597,40.5737616 L142.382341,38.6941994 L135.874767,38.6941994 L135.874767,38.6883441 Z M135.482674,30.6079832 L135.482674,33.0379468 L143.868784,33.0379468 C144.729048,33.1960408 145.203071,32.9618274 145.203071,32.411426 L145.203071,30.6079832 L135.482674,30.6079832 Z M131.877758,30.6841025 L130.543472,30.6841025 L130.543472,27.7037375 L131.719751,27.7037375 L131.719751,26.5268153 L135.324666,26.5268153 L135.324666,27.5456434 L145.045063,27.5456434 L145.045063,26.6029346 L148.649978,26.6029346 L148.649978,27.5456434 L149.826258,27.5456434 L149.826258,30.5260085 L148.655831,30.5260085 L148.655831,33.0379468 C148.497823,34.4490823 147.637559,35.1575777 145.911179,35.1575777 L131.801681,35.1575777 L131.801681,30.6841025 L131.877758,30.6841025 Z M130.783409,38.6883441 L130.783409,36.0183118 L149.674102,36.0183118 L149.674102,38.4482754 L143.00852,42.4474686 L143.634698,42.7636566 C144.102869,43.0798446 144.576892,43.155964 145.203071,43.0798446 L149.826258,43.0798446 L149.826258,46.0602096 L143.944862,46.0602096 C143.160675,46.0602096 142.376489,45.9021156 141.750311,45.6679023 L139.321675,44.4909801 L137.203202,45.5098082 C136.419016,45.8259962 135.558752,46.0602096 134.616558,46.136329 L130.145526,46.136329 L130.145526,43.0798446 L133.282271,43.0798446 C133.990379,43.0798446 134.534628,43.0037253 134.850643,42.8456313 L136.026922,42.2952299 L130.853635,38.6883441 L130.783409,38.6883441 Z M135.874767,23.0780236 L135.874767,22.0591955 L139.953705,22.0591955 L139.953705,23.0780236 L149.990117,23.0780236 L149.990117,26.0583886 L129.68906,26.0583886 L129.68906,46.2183036 L126.160222,46.2183036 L126.160222,23.0780236 L135.874767,23.0780236 Z" id="Shape"></path>
            </g>
        </g>
    </g>
</svg>