<?xml version="1.0" encoding="UTF-8"?>
<svg width="170px" height="48px" viewBox="0 0 170 48" version="1.1" xmlns="http://www.w3.org/2000/svg" xmlns:xlink="http://www.w3.org/1999/xlink">
    <!-- Generator: Sketch 48.2 (47327) - http://www.bohemiancoding.com/sketch -->
    <title>默认搜索-深</title>
    <desc>Created with Sketch.</desc>
    <defs></defs>
    <g id="Symbols" stroke="none" stroke-width="1" fill="none" fill-rule="evenodd">
        <g id="默认搜索-深" fill="#FFFFFF">
            <g id="搜索" transform="translate(0.000000, 4.000000)" fill-rule="nonzero">
                <path d="M27.9962387,8.36238258 C22.5779347,2.94407852 13.7806882,2.94407852 8.36238414,8.36238258 C2.94408008,13.7806866 2.94408008,22.5779331 8.36238414,27.9962372 C13.7806882,33.4145412 22.5779347,33.4145412 27.9962387,27.9962372 C33.4145428,22.5779331 33.4145428,13.7806866 27.9962387,8.36238258 Z M5.32333535,31.0152922 C-1.77444305,23.9175138 -1.77444305,12.4211122 5.32333535,5.32333379 C12.4211137,-1.77444461 23.9175154,-1.77444461 31.0152938,5.32333379 C38.1130722,12.4211122 38.1130722,23.9175138 31.0152938,31.0152922 C23.9175154,38.1130706 12.4211138,38.1130706 5.32333535,31.0152922 Z M39.2527155,39.2727077 C38.2930159,40.2324073 36.7135102,40.252401 35.7538106,39.2727077 L32.2549058,35.7738028 C31.2952062,34.8141032 31.2952062,33.2345976 32.2549058,32.274898 C33.2146054,31.3151984 34.794111,31.3151984 35.7538106,32.274898 L39.2527155,35.7738028 C40.2324088,36.7135087 40.2324088,38.2930143 39.2527155,39.2727077 C39.2727092,39.2527139 39.2527155,39.2527139 39.2527155,39.2727077 Z" id="Shape"></path>
            </g>
            <path d="M61.46,10.85 L64.43,10.85 L64.43,12.71 L67.85,12.71 L67.85,15.47 L64.43,15.47 L64.43,17.78 L67.49,17.78 L67.49,20.42 L64.43,20.42 L64.43,22.7 L67.46,22.7 L67.1,22.25 C68.63,19.31 69.68,15.41 70.22,10.49 L73.19,11.03 C73.01,12.41 72.8,13.7 72.56,14.93 L78.44,14.93 L78.44,17.87 L77.18,17.87 C77.06,22.55 76.34,26.54 74.96,29.9 C76.13,32.21 77.54,34.04 79.16,35.36 L77.39,37.97 C75.89,36.68 74.57,35 73.43,32.9 C72.23,34.88 70.73,36.56 68.99,37.94 L67.37,35.39 C67.25,35.81 67.16,36.14 67.07,36.35 C66.56,37.31 65.69,37.82 64.43,37.82 C63.77,37.82 62.96,37.76 62.03,37.67 L61.28,34.97 C62.3,35.06 63.14,35.12 63.8,35.18 C64.31,35.15 64.64,34.88 64.76,34.34 C64.88,33.8 64.97,32.39 65,30.08 L62.15,30.08 C61.97,31.01 61.76,31.82 61.58,32.54 C60.92,34.67 59.93,36.56 58.61,38.24 L56.75,35.81 C57.77,34.43 58.55,32.87 59.09,31.16 C59.48,29.72 59.81,27.83 60.05,25.46 L57.56,25.46 L57.56,22.7 L61.46,22.7 L61.46,20.42 L58.37,20.42 L58.37,17.78 L61.46,17.78 L61.46,15.47 L58.04,15.47 L58.04,12.71 L61.46,12.71 L61.46,10.85 Z M67.76,23.09 L67.76,25.46 L62.81,25.46 C62.72,26.18 62.63,26.87 62.57,27.5 L67.88,27.5 C67.85,31.22 67.7,33.8 67.4,35.27 C69.32,33.83 70.82,32 71.93,29.72 C71.09,27.74 70.4,25.55 69.83,23.15 C69.56,23.66 69.29,24.14 68.99,24.62 L67.76,23.09 Z M71.84,17.87 C71.72,18.23 71.63,18.56 71.51,18.92 C71.99,21.56 72.59,23.93 73.31,26.03 C73.97,23.6 74.33,20.87 74.42,17.87 L71.84,17.87 Z M55.37,10.19 L58.16,11.54 C57.71,13.4 57.17,15.17 56.51,16.85 L56.51,38.18 L53.63,38.18 L53.63,22.7 C53.09,23.54 52.55,24.38 51.98,25.22 L50.93,21.86 C52.91,18.56 54.41,14.69 55.37,10.19 Z M100.91,17.3 C100.55,18.11 100.13,18.86 99.71,19.58 L107.99,19.58 L107.99,22.37 C107.12,23.48 106.16,24.59 105.11,25.67 L105.11,26.93 L108.95,26.93 L108.95,29.75 L105.11,29.75 L105.11,34.31 C105.11,36.59 104.27,37.73 102.59,37.73 L99.74,37.73 L98.96,34.88 C99.74,34.94 100.58,34.97 101.51,34.97 C101.9,34.97 102.11,34.4 102.11,33.26 L102.11,29.75 L97.97,29.75 L97.97,26.93 L102.11,26.93 L102.11,25.31 C103.13,24.11 103.94,23.15 104.51,22.37 L99.53,22.37 L99.53,19.91 C99.08,20.6 98.6,21.26 98.09,21.86 L96.11,19.4 C96.5,18.86 96.86,18.32 97.22,17.75 L92.51,17.75 L92.51,19.31 C92.51,19.97 92.48,20.63 92.48,21.29 L97.07,21.29 C97.07,28.7 96.92,33.29 96.68,35.03 C96.44,36.77 95.42,37.67 93.62,37.67 C93.2,37.67 92.48,37.61 91.46,37.49 L90.74,34.82 C91.64,34.88 92.45,34.94 93.14,34.94 C93.53,34.94 93.77,34.49 93.83,33.65 C94.01,32.75 94.1,29.63 94.16,24.29 L92.3,24.29 C91.79,30.35 90.47,34.91 88.31,38.03 L85.94,35.96 C88.22,32.51 89.39,26.96 89.45,19.31 L89.45,17.75 L87.32,17.75 L87.32,14.72 L91.1,14.72 C90.74,13.31 90.38,11.99 89.96,10.76 L93.11,10.22 C93.5,11.54 93.86,13.04 94.19,14.72 L97.4,14.72 L97.4,17.42 C98.48,15.44 99.23,13.07 99.68,10.25 L102.77,10.79 C102.53,11.99 102.29,13.1 101.99,14.15 L108.83,14.15 L108.83,17.3 L100.91,17.3 Z M83.36,10.76 C84.98,11.99 86.33,13.25 87.44,14.51 L85.22,16.73 C84.26,15.5 82.94,14.18 81.23,12.8 L83.36,10.76 Z M83.27,18.26 C84.95,19.58 86.39,20.9 87.56,22.25 L85.34,24.47 C84.35,23.18 82.94,21.8 81.14,20.3 L83.27,18.26 Z M84.56,26.45 L87.32,27.53 C86.24,31.13 85.07,34.52 83.81,37.67 L80.9,36.38 C82.31,33.14 83.54,29.84 84.56,26.45 Z M124.13,19.1 L124.13,21.23 L128.03,21.23 L128.03,10.55 L130.94,10.55 L130.94,21.23 L134.81,21.23 L134.81,19.1 L132.14,19.1 L132.14,16.55 L134.81,16.55 L134.81,14.3 L132.05,14.3 L132.05,11.69 L137.57,11.69 L137.57,23.9 L130.94,23.9 L130.94,25.94 L137.45,25.94 L137.45,28.55 C136.55,30.47 135.08,32.12 133.04,33.53 C134.78,34.22 136.79,34.79 139.01,35.24 L137.84,38.18 C134.69,37.52 131.99,36.59 129.77,35.39 C127.31,36.53 124.34,37.49 120.92,38.21 L119.36,35.39 C122.18,34.91 124.67,34.28 126.77,33.5 C125,32.12 123.62,30.53 122.6,28.73 L121.19,28.73 L121.19,25.94 L128.03,25.94 L128.03,23.9 L121.31,23.9 L121.31,12.53 C122.87,12.17 124.37,11.57 125.87,10.73 L127.58,13.04 C126.62,13.52 125.45,13.97 124.13,14.45 L124.13,16.55 L126.92,16.55 L126.92,19.1 L124.13,19.1 Z M125.96,28.73 C126.98,29.99 128.33,31.1 129.98,32.06 C131.72,31.1 133.07,29.99 134.03,28.73 L125.96,28.73 Z M115.01,37.85 L112.16,37.85 L111.5,34.91 C112.34,35.03 113.18,35.12 113.96,35.12 C114.53,35.12 114.83,34.73 114.83,33.98 L114.83,27.92 C113.87,28.28 112.91,28.61 111.95,28.91 L111.2,25.94 C112.4,25.64 113.63,25.31 114.83,24.89 L114.83,18.77 L111.86,18.77 L111.86,15.8 L114.83,15.8 L114.83,10.52 L117.89,10.52 L117.89,15.8 L120.23,15.8 L120.23,18.77 L117.89,18.77 L117.89,23.66 C118.76,23.24 119.63,22.82 120.5,22.37 L120.5,25.43 C119.63,25.85 118.76,26.27 117.89,26.66 L117.89,34.76 C117.89,36.8 116.93,37.85 115.01,37.85 Z M143.66,12.38 L153.41,12.38 L153.41,10.37 L156.59,10.37 L156.59,12.38 L166.34,12.38 L166.34,15.2 L156.59,15.2 L156.59,17.06 L167.93,17.06 L167.93,23.06 L164.87,23.06 L164.87,19.76 L154.61,19.76 L155.78,20.36 C154.22,21.56 152.6,22.61 150.95,23.57 C153.05,23.51 154.82,23.45 156.23,23.39 C157.25,22.67 158.27,21.92 159.35,21.14 L161.84,22.85 C158.9,25.01 155.63,26.81 152,28.22 C155.12,28.1 158.15,27.98 161.15,27.8 C160.61,27.2 160.07,26.6 159.53,26.03 L161.78,24.62 C163.88,26.72 165.5,28.58 166.64,30.17 L164.3,31.82 C163.85,31.16 163.37,30.5 162.86,29.84 C160.73,29.96 158.69,30.08 156.74,30.2 L156.74,35.27 C156.74,37.13 155.75,38.09 153.77,38.09 L151.04,38.09 L150.41,35.21 C151.22,35.33 152,35.42 152.75,35.42 C153.32,35.42 153.62,35.12 153.62,34.52 L153.62,30.35 C150.44,30.5 147.5,30.62 144.8,30.71 L144.17,27.92 C145.07,27.98 145.97,28.01 146.84,28.01 C148.7,27.5 150.65,26.69 152.72,25.55 C151.04,25.61 149.15,25.67 147.11,25.73 L146.51,23.45 C146.93,23.36 147.35,23.18 147.83,22.94 C149.39,22.01 150.89,20.96 152.3,19.76 L145.13,19.76 L145.13,23.03 L142.07,23.03 L142.07,17.06 L153.41,17.06 L153.41,15.2 L143.66,15.2 L143.66,12.38 Z M159.65,31.22 C162.77,32.33 165.59,33.68 168.14,35.24 L166.58,37.7 C163.82,35.93 161,34.55 158.12,33.53 L159.65,31.22 Z M149.72,31.16 L151.52,33.23 C149.18,35 146.3,36.47 142.94,37.61 L141.65,34.88 C144.95,33.95 147.62,32.72 149.72,31.16 Z" id="傲游搜索"></path>
        </g>
    </g>
</svg>