<?xml version="1.0" encoding="UTF-8"?>
<svg width="225px" height="48px" viewBox="0 0 225 48" version="1.1" xmlns="http://www.w3.org/2000/svg" xmlns:xlink="http://www.w3.org/1999/xlink">
    <!-- Generator: Sketch 48.2 (47327) - http://www.bohemiancoding.com/sketch -->
    <title>多重英文搜索-深</title>
    <desc>Created with Sketch.</desc>
    <defs></defs>
    <g id="Symbols" stroke="none" stroke-width="1" fill="none" fill-rule="evenodd">
        <g id="多重英文搜索-深" fill="#FFFFFF">
            <g id="搜索" transform="translate(0.000000, 4.000000)" fill-rule="nonzero">
                <path d="M27.9962387,8.36238258 C22.5779347,2.94407852 13.7806882,2.94407852 8.36238414,8.36238258 C2.94408008,13.7806866 2.94408008,22.5779331 8.36238414,27.9962372 C13.7806882,33.4145412 22.5779347,33.4145412 27.9962387,27.9962372 C33.4145428,22.5779331 33.4145428,13.7806866 27.9962387,8.36238258 Z M5.32333535,31.0152922 C-1.77444305,23.9175138 -1.77444305,12.4211122 5.32333535,5.32333379 C12.4211137,-1.77444461 23.9175154,-1.77444461 31.0152938,5.32333379 C38.1130722,12.4211122 38.1130722,23.9175138 31.0152938,31.0152922 C23.9175154,38.1130706 12.4211138,38.1130706 5.32333535,31.0152922 Z M39.2527155,39.2727077 C38.2930159,40.2324073 36.7135102,40.252401 35.7538106,39.2727077 L32.2549058,35.7738028 C31.2952062,34.8141032 31.2952062,33.2345976 32.2549058,32.274898 C33.2146054,31.3151984 34.794111,31.3151984 35.7538106,32.274898 L39.2527155,35.7738028 C40.2324088,36.7135087 40.2324088,38.2930143 39.2527155,39.2727077 C39.2727092,39.2527139 39.2527155,39.2527139 39.2527155,39.2727077 Z" id="Shape"></path>
            </g>
            <path d="M52,12.5454545 L57.6204976,12.5454545 L63.9116227,30.4812834 L63.975492,30.4812834 L70.1069439,12.5454545 L75.6635722,12.5454545 L75.6635722,35.4545455 L71.8633494,35.4545455 L71.8633494,17.7754011 L71.7994801,17.7754011 L65.4764203,35.4545455 L62.1871519,35.4545455 L55.8640921,17.7754011 L55.8002228,17.7754011 L55.8002228,35.4545455 L52,35.4545455 L52,12.5454545 Z M94.4411437,35.4545455 L90.8644634,35.4545455 L90.8644634,33.144385 L90.8005941,33.144385 C90.3535069,33.9786138 89.6882084,34.6470563 88.8046788,35.1497326 C87.9211492,35.6524089 87.0216657,35.9037433 86.1062013,35.9037433 C83.9346345,35.9037433 82.3645302,35.3636418 81.3958411,34.2834225 C80.427152,33.2032032 79.9428147,31.5722034 79.9428147,29.3903743 L79.9428147,18.8663102 L83.5833643,18.8663102 L83.5833643,29.0374332 C83.5833643,30.4919859 83.8601284,31.5187136 84.4136651,32.1176471 C84.9672017,32.7165805 85.7442703,33.0160428 86.7448942,33.0160428 C87.5113295,33.0160428 88.150016,32.8983969 88.6609729,32.6631016 C89.1719298,32.4278063 89.587076,32.1123014 89.9064241,31.7165775 C90.2257721,31.3208536 90.4546348,30.8449226 90.5930189,30.2887701 C90.7314031,29.7326175 90.8005941,29.133693 90.8005941,28.4919786 L90.8005941,18.8663102 L94.4411437,18.8663102 L94.4411437,35.4545455 Z M98.3691051,12.5454545 L102.009655,12.5454545 L102.009655,35.4545455 L98.3691051,35.4545455 L98.3691051,12.5454545 Z M104.308949,18.8663102 L107.055329,18.8663102 L107.055329,13.8930481 L110.695878,13.8930481 L110.695878,18.8663102 L113.985147,18.8663102 L113.985147,21.5935829 L110.695878,21.5935829 L110.695878,30.4491979 C110.695878,30.8342265 110.711845,31.165774 110.74378,31.4438503 C110.775715,31.7219265 110.850228,31.9572183 110.967323,32.1497326 C111.084417,32.342247 111.260056,32.4866305 111.494244,32.5828877 C111.728433,32.6791449 112.047776,32.7272727 112.452284,32.7272727 C112.707762,32.7272727 112.963237,32.7219252 113.218715,32.7112299 C113.474194,32.7005347 113.729668,32.6631019 113.985147,32.5989305 L113.985147,35.4224599 C113.580639,35.4652409 113.186782,35.5080212 112.803565,35.5508021 C112.420347,35.5935831 112.02649,35.6149733 111.621983,35.6149733 C110.663939,35.6149733 109.892193,35.5240651 109.306721,35.342246 C108.72125,35.1604269 108.263524,34.8930499 107.933531,34.540107 C107.603538,34.187164 107.379998,33.7433182 107.262904,33.2085561 C107.14581,32.6737941 107.076618,32.0641745 107.055329,31.3796791 L107.055329,21.5935829 L104.308949,21.5935829 L104.308949,18.8663102 Z M116.699592,12.5454545 L120.340141,12.5454545 L120.340141,16.0106952 L116.699592,16.0106952 L116.699592,12.5454545 Z M116.699592,18.8663102 L120.340141,18.8663102 L120.340141,35.4545455 L116.699592,35.4545455 L116.699592,18.8663102 Z M127.429632,27.8181818 C127.429632,28.6951916 127.578659,29.4438472 127.876717,30.0641711 C128.174776,30.6844951 128.589922,31.1925114 129.122169,31.5882353 C129.654415,31.9839592 130.26649,32.2727264 130.958411,32.4545455 C131.650331,32.6363645 132.400788,32.7272727 133.209803,32.7272727 C134.082688,32.7272727 134.827822,32.6256695 135.445228,32.4224599 C136.062635,32.2192503 136.562939,31.9572209 136.946157,31.6363636 C137.329374,31.3155064 137.606139,30.9465261 137.776457,30.5294118 C137.946776,30.1122974 138.031935,29.6898417 138.031935,29.2620321 C138.031935,28.3850224 137.835006,27.73797 137.441144,27.3208556 C137.047281,26.9037412 136.616168,26.6096265 136.147791,26.4385027 C135.338776,26.1390359 134.396713,25.8556163 133.321574,25.5882353 C132.246436,25.3208543 130.921161,24.9732642 129.345711,24.5454545 C128.366377,24.2887688 127.552052,23.9518737 126.902711,23.5347594 C126.25337,23.117645 125.737098,22.652409 125.35388,22.1390374 C124.970663,21.6256659 124.699221,21.0802168 124.539547,20.5026738 C124.379873,19.9251308 124.300037,19.3369014 124.300037,18.7379679 C124.300037,17.5828819 124.539545,16.5828919 125.018567,15.7379679 C125.497589,14.8930439 126.130953,14.1925161 126.918678,13.6363636 C127.706403,13.0802111 128.600564,12.6684505 129.601188,12.4010695 C130.601812,12.1336885 131.613066,12 132.63498,12 C133.827212,12 134.950236,12.1550787 136.004085,12.4652406 C137.057933,12.7754026 137.984029,13.2406386 138.782399,13.8609626 C139.580769,14.4812865 140.214133,15.2459848 140.68251,16.1550802 C141.150887,17.0641757 141.385072,18.1176411 141.385072,19.315508 L137.393242,19.315508 C137.286792,17.8395648 136.786488,16.7967945 135.892313,16.1871658 C134.998139,15.5775371 133.859148,15.2727273 132.475306,15.2727273 C132.006929,15.2727273 131.527914,15.3208551 131.038247,15.4171123 C130.54858,15.5133695 130.1015,15.6737957 129.696992,15.8983957 C129.292485,16.1229958 128.957174,16.4278056 128.691051,16.8128342 C128.424927,17.1978629 128.291868,17.6791415 128.291868,18.2566845 C128.291868,19.0695228 128.54202,19.7058801 129.042332,20.1657754 C129.542644,20.6256707 130.197298,20.9732609 131.006313,21.2085561 C131.091472,21.2299466 131.426783,21.3208548 132.012254,21.4812834 C132.597725,21.641712 133.252379,21.8181809 133.976235,22.0106952 C134.70009,22.2032095 135.407968,22.3903734 136.099889,22.5721925 C136.791809,22.7540116 137.286791,22.8877001 137.58485,22.973262 C138.329995,23.2085573 138.979326,23.5294097 139.532863,23.9358289 C140.0864,24.342248 140.549447,24.807484 140.92202,25.3315508 C141.294593,25.8556176 141.571357,26.4171093 141.752321,27.0160428 C141.933285,27.6149763 142.023765,28.2139007 142.023765,28.8128342 C142.023765,30.0962631 141.762968,31.1925088 141.241367,32.1016043 C140.719765,33.0106997 140.033177,33.7540078 139.181582,34.3315508 C138.329987,34.9090938 137.361313,35.3315495 136.275529,35.5989305 C135.189746,35.8663115 134.082689,36 132.954326,36 C131.655644,36 130.431495,35.8395738 129.281842,35.5187166 C128.132189,35.1978594 127.13158,34.7058857 126.279985,34.0427807 C125.42839,33.3796758 124.747125,32.529417 124.236168,31.4919786 C123.725211,30.4545403 123.459092,29.2299536 123.437802,27.8181818 L127.429632,27.8181818 Z M156.330486,25.7005348 C156.287907,25.1229918 156.165492,24.5668476 155.963238,24.0320856 C155.760984,23.4973235 155.48422,23.0320875 155.132937,22.6363636 C154.781654,22.2406397 154.355863,21.9197873 153.855551,21.6737968 C153.355239,21.4278063 152.796389,21.3048128 152.178983,21.3048128 C151.540286,21.3048128 150.960146,21.4171112 150.438544,21.6417112 C149.916943,21.8663113 149.469862,22.1764686 149.097289,22.5721925 C148.724717,22.9679164 148.426663,23.4331524 148.203119,23.9679144 C147.979576,24.5026765 147.857161,25.0802108 147.835871,25.7005348 L156.330486,25.7005348 Z M147.835871,28.1069519 C147.835871,28.7486663 147.926351,29.368981 148.107315,29.9679144 C148.288279,30.5668479 148.559721,31.0909068 148.921649,31.540107 C149.283577,31.9893071 149.741302,32.3475922 150.294838,32.6149733 C150.848375,32.8823543 151.508351,33.0160428 152.274786,33.0160428 C153.33928,33.0160428 154.196184,32.7860986 154.845525,32.3262032 C155.494866,31.8663079 155.979204,31.1764752 156.298552,30.2566845 L159.747494,30.2566845 C159.555885,31.1550847 159.225897,31.9572157 158.757519,32.6631016 C158.289142,33.3689875 157.724969,33.9625644 157.064983,34.4438503 C156.404997,34.9251361 155.665185,35.2887688 154.845525,35.5347594 C154.025865,35.7807499 153.168961,35.9037433 152.274786,35.9037433 C150.976104,35.9037433 149.826469,35.6898417 148.825845,35.2620321 C147.825221,34.8342225 146.978961,34.235298 146.28704,33.4652406 C145.59512,32.6951833 145.073526,31.7754064 144.722243,30.7058824 C144.37096,29.6363583 144.195321,28.4598995 144.195321,27.1764706 C144.195321,25.9999941 144.381605,24.8823582 144.754177,23.8235294 C145.12675,22.7647006 145.658989,21.8342286 146.35091,21.0320856 C147.042831,20.2299425 147.878445,19.5935852 148.857779,19.1229947 C149.837113,18.6524041 150.94417,18.4171123 152.178983,18.4171123 C153.477665,18.4171123 154.643268,18.6898368 155.675826,19.2352941 C156.708385,19.7807514 157.565289,20.5026693 158.246565,21.4010695 C158.927841,22.2994697 159.422823,23.331545 159.731526,24.4973262 C160.040229,25.6631074 160.120065,26.866304 159.971036,28.1069519 L147.835871,28.1069519 Z M176.577052,31.7647059 C176.577052,32.213906 176.635598,32.5347584 176.752692,32.7272727 C176.869786,32.9197871 177.098649,33.0160428 177.439287,33.0160428 L177.822503,33.0160428 C177.971532,33.0160428 178.141848,32.9946526 178.333457,32.9518717 L178.333457,35.486631 C178.205718,35.529412 178.040724,35.5775398 177.83847,35.631016 C177.636216,35.6844922 177.428643,35.7326201 177.215745,35.7754011 C177.002846,35.818182 176.78995,35.8502673 176.577052,35.8716578 C176.364153,35.8930482 176.183192,35.9037433 176.034163,35.9037433 C175.289017,35.9037433 174.67162,35.7540122 174.181953,35.4545455 C173.692286,35.1550787 173.372943,34.6310198 173.223914,33.8823529 C172.500058,34.5882388 171.61122,35.1016027 170.557371,35.4224599 C169.503522,35.7433171 168.486946,35.9037433 167.507612,35.9037433 C166.762467,35.9037433 166.049267,35.8021401 165.367991,35.5989305 C164.686715,35.3957209 164.085285,35.0962587 163.563684,34.7005348 C163.042082,34.3048109 162.626936,33.8021421 162.318232,33.1925134 C162.009529,32.5828847 161.85518,31.8716618 161.85518,31.0588235 C161.85518,30.0320804 162.041464,29.1978642 162.414036,28.5561497 C162.786609,27.9144353 163.276269,27.4117665 163.88303,27.0481283 C164.489791,26.6844902 165.171057,26.4224607 165.926847,26.2620321 C166.682638,26.1016035 167.443739,25.9786101 168.210175,25.8930481 C168.87016,25.7647052 169.498202,25.6737971 170.094319,25.6203209 C170.690435,25.5668447 171.217351,25.4759365 171.675084,25.3475936 C172.132816,25.2192507 172.494738,25.0213917 172.760861,24.7540107 C173.026985,24.4866297 173.160045,24.0855642 173.160045,23.5508021 C173.160045,23.0802116 173.048274,22.6951887 172.824731,22.3957219 C172.601187,22.0962552 172.324423,21.866311 171.99443,21.7058824 C171.664437,21.5454537 171.297192,21.4385029 170.892685,21.3850267 C170.488177,21.3315505 170.104965,21.3048128 169.743038,21.3048128 C168.721124,21.3048128 167.880186,21.5187144 167.220201,21.9465241 C166.560215,22.3743337 166.187647,23.0374287 166.102488,23.9358289 L162.461938,23.9358289 C162.525808,22.8663048 162.781283,21.9786132 163.22837,21.2727273 C163.675457,20.5668414 164.244953,20.0000021 164.936873,19.5721925 C165.628794,19.1443829 166.411185,18.8449206 167.28407,18.6737968 C168.156954,18.5026729 169.051116,18.4171123 169.96658,18.4171123 C170.775595,18.4171123 171.573953,18.5026729 172.361678,18.6737968 C173.149404,18.8449206 173.857281,19.1229927 174.485332,19.5080214 C175.113384,19.8930501 175.61901,20.3903713 176.002228,21 C176.385446,21.6096287 176.577052,22.3529368 176.577052,23.2299465 L176.577052,31.7647059 Z M172.936502,27.144385 C172.382965,27.5080232 171.7017,27.7272724 170.892685,27.802139 C170.08367,27.8770057 169.274667,27.9893041 168.465652,28.1390374 C168.082434,28.2032089 167.709867,28.2941171 167.347939,28.4117647 C166.986011,28.5294124 166.666668,28.6898386 166.3899,28.8930481 C166.113131,29.0962577 165.894914,29.3636347 165.73524,29.6951872 C165.575565,30.0267396 165.49573,30.4278051 165.49573,30.8983957 C165.49573,31.3048149 165.612822,31.6470574 165.847011,31.9251337 C166.081199,32.2032099 166.363286,32.4224591 166.693279,32.5828877 C167.023272,32.7433163 167.385194,32.8556147 167.779057,32.9197861 C168.172919,32.9839575 168.529519,33.0160428 168.848867,33.0160428 C169.253375,33.0160428 169.689811,32.9625674 170.158188,32.855615 C170.626565,32.7486626 171.068323,32.5668462 171.483476,32.3101604 C171.898628,32.0534747 172.244583,31.7272747 172.521352,31.3315508 C172.79812,30.9358269 172.936502,30.4492007 172.936502,29.8716578 L172.936502,27.144385 Z M180.505013,18.8663102 L183.92202,18.8663102 L183.92202,22.0748663 L183.985889,22.0748663 C184.092339,21.6256662 184.299912,21.1871679 184.608615,20.7593583 C184.917318,20.3315487 185.289885,19.9411782 185.726328,19.5882353 C186.16277,19.2352924 186.647107,18.9518727 187.179354,18.7379679 C187.711601,18.5240631 188.254484,18.4171123 188.808021,18.4171123 C189.233818,18.4171123 189.52655,18.4278074 189.686224,18.4491979 C189.845898,18.4705883 190.010892,18.4919785 190.181211,18.513369 L190.181211,22.0427807 C189.925732,21.9999998 189.664935,21.962567 189.398812,21.9304813 C189.132688,21.8983956 188.871891,21.8823529 188.616413,21.8823529 C187.999007,21.8823529 187.418866,22.0053464 186.875975,22.2513369 C186.333083,22.4973274 185.859391,22.8609602 185.454883,23.342246 C185.050375,23.8235318 184.731032,24.4171088 184.496844,25.1229947 C184.262655,25.8288805 184.145563,26.6417066 184.145563,27.5614973 L184.145563,35.4545455 L180.505013,35.4545455 L180.505013,18.8663102 Z M202.891199,24.4171123 C202.74217,23.3903692 202.332346,22.6149759 201.661716,22.0909091 C200.991085,21.5668423 200.144825,21.3048128 199.122911,21.3048128 C198.654534,21.3048128 198.15423,21.3850259 197.621983,21.5454545 C197.089736,21.7058832 196.600077,22.0053454 196.152989,22.4438503 C195.705902,22.8823551 195.333335,23.4919747 195.035277,24.2727273 C194.737218,25.0534798 194.588192,26.07486 194.588192,27.3368984 C194.588192,28.0213938 194.668027,28.7058789 194.827701,29.3903743 C194.987375,30.0748697 195.24285,30.6844893 195.594133,31.2192513 C195.945416,31.7540134 196.397819,32.1871641 196.951355,32.5187166 C197.504892,32.850269 198.175513,33.0160428 198.963238,33.0160428 C200.027732,33.0160428 200.905925,32.6844953 201.597846,32.0213904 C202.289767,31.3582855 202.72088,30.4278135 202.891199,29.2299465 L206.531749,29.2299465 C206.191111,31.3903851 205.376786,33.042775 204.088749,34.1871658 C202.800711,35.3315565 201.092225,35.9037433 198.963238,35.9037433 C197.664556,35.9037433 196.520243,35.6844942 195.530264,35.2459893 C194.540285,34.8074844 193.70467,34.2085599 193.023394,33.4491979 C192.342118,32.6898358 191.825847,31.7861015 191.474564,30.7379679 C191.123281,29.6898343 190.947642,28.5561558 190.947642,27.3368984 C190.947642,26.0962505 191.117958,24.9304867 191.458596,23.8395722 C191.799234,22.7486576 192.310183,21.802143 192.991459,21 C193.672735,20.197857 194.518995,19.5668472 195.530264,19.1069519 C196.541532,18.6470565 197.728425,18.4171123 199.090977,18.4171123 C200.049021,18.4171123 200.959149,18.5401057 201.821389,18.7860963 C202.683629,19.0320868 203.450052,19.4010671 204.120683,19.8930481 C204.791314,20.3850292 205.33952,21.0053439 205.765317,21.7540107 C206.191115,22.5026775 206.446589,23.3903692 206.531749,24.4171123 L202.891199,24.4171123 Z M209.501671,12.5454545 L213.142221,12.5454545 L213.142221,21.0481283 L213.20609,21.0481283 C213.653177,20.2994615 214.318476,19.6737993 215.202005,19.171123 C216.085535,18.6684467 217.070177,18.4171123 218.15596,18.4171123 C219.965599,18.4171123 221.391999,18.8876958 222.435202,19.828877 C223.478406,20.7700582 224,22.1818088 224,24.0641711 L224,35.4545455 L220.35945,35.4545455 L220.35945,25.026738 C220.316871,23.7219186 220.040107,22.775404 219.52915,22.1871658 C219.018193,21.5989275 218.219835,21.3048128 217.134051,21.3048128 C216.516645,21.3048128 215.963117,21.4171112 215.47345,21.6417112 C214.983783,21.8663113 214.568636,22.1764686 214.227999,22.5721925 C213.887361,22.9679164 213.621241,23.4331524 213.429632,23.9679144 C213.238024,24.5026765 213.142221,25.0695157 213.142221,25.6684492 L213.142221,35.4545455 L209.501671,35.4545455 L209.501671,12.5454545 Z" id="MultiSearch"></path>
        </g>
    </g>
</svg>