<?xml version="1.0" encoding="UTF-8"?>
<svg width="144px" height="48px" viewBox="0 0 144 48" version="1.1" xmlns="http://www.w3.org/2000/svg" xmlns:xlink="http://www.w3.org/1999/xlink">
    <!-- Generator: Sketch 48.2 (47327) - http://www.bohemiancoding.com/sketch -->
    <title>搜狗英文搜索-浅</title>
    <desc>Created with Sketch.</desc>
    <defs></defs>
    <g id="Symbols" stroke="none" stroke-width="1" fill="none" fill-rule="evenodd">
        <g id="搜狗英文搜索-浅" fill="#E94924">
            <g id="搜狗logo" transform="translate(0.000000, 4.000000)" fill-rule="nonzero">
                <path d="M28.4516422,10.1006789 C29.3332463,10.3445974 30.2082712,10.6017007 31.0701379,10.9115431 C31.1425084,12.302538 31.2280372,13.6869405 31.3004076,15.0779354 C29.6687822,14.4186961 27.9779445,13.9044895 26.2673695,13.4825764 C24.1883628,12.9815545 22.0633023,12.6387501 19.9185043,12.6057881 C19.0829542,12.5926034 18.2210875,12.6585273 17.4381704,12.9815545 C17.0236849,13.1595491 16.6091994,13.4232448 16.4184046,13.8517504 C16.2670845,14.1681852 16.3394549,14.5439516 16.5105124,14.8340169 C16.780257,15.2822996 17.2276382,15.5855496 17.6750193,15.8294682 C18.6553104,16.363452 19.760605,16.5875933 20.8395832,16.8578815 C23.0106977,17.3852729 25.1949705,17.9192567 27.2476605,18.8158221 C28.2279516,19.2509201 29.1753471,19.7717191 29.9977389,20.4573279 C30.5306488,20.9056106 31.0043466,21.4395944 31.3464616,22.0460946 C32.1556952,23.4766438 32.1293786,25.3488834 31.2543537,26.7398783 C30.5306488,27.9001394 29.3464045,28.6912266 28.1095272,29.218618 C26.6226428,29.8448953 25.0239129,30.1481454 23.4251832,30.293178 C21.7014498,30.444803 19.9645583,30.4316183 18.2408249,30.2536236 C15.6552249,29.9701507 13.122258,29.3570582 10.6616615,28.5330091 C9.79321573,28.2429438 8.9247699,27.9331014 8.08264068,27.5639274 C7.9905328,26.1399705 7.91816232,24.7160137 7.83263353,23.2920569 C9.33267631,24.0106277 10.8919313,24.5907583 12.490661,25.0390409 C14.6815129,25.6389487 16.9644727,25.9817531 19.2342743,25.8235357 C20.096141,25.7576118 20.9645867,25.6521334 21.8001369,25.4016225 C22.2409389,25.2631823 22.6948992,25.0917801 23.0370142,24.7687528 C23.2278092,24.5973506 23.3528127,24.3270625 23.3067587,24.0633668 C23.2475465,23.7535243 23.0238559,23.5096058 22.7870071,23.3052416 C22.2804137,22.8899209 21.6817124,22.6262251 21.0830112,22.3823066 C20.3658855,22.1317957 19.6356015,21.901062 18.8855801,21.7428446 C17.2934294,21.4066325 15.7012788,21.0770129 14.1354447,20.6287301 C12.490661,20.1408931 10.832719,19.5805397 9.39846763,18.6048656 C8.62870884,18.0774741 7.92474142,17.3918653 7.54973073,16.515077 C7.24051141,15.7965062 7.21419485,14.9922343 7.32604014,14.2275167 C7.4839394,13.1002176 8.03658671,12.0454347 8.82608291,11.227978 C9.62215822,10.3907441 10.6419242,9.79083637 11.707744,9.36892325 C12.9577796,8.88108618 14.2867648,8.62398287 15.6157501,8.5119122 C17.7342315,8.3273252 19.8592921,8.51850461 21.9646152,8.78220027 C24.1620463,9.09204271 26.3265816,9.52714065 28.4516422,10.1006789 Z" id="Shape"></path>
                <path d="M36.5505572,33.9321788 L34.5110255,32.2379339 C34.1623313,32.6532546 33.7938997,33.0553906 33.4123099,33.4377494 C32.5241267,34.3277224 31.5438356,35.1385867 30.5043323,35.8439727 C29.4714081,36.5427664 28.3726926,37.1426741 27.2279231,37.6305112 L28.4779588,39.9839954 C31.609627,38.599593 34.3662845,36.5229892 36.5505572,33.9321788 Z M25.8989379,35.1385867 C25.0239129,35.4945759 24.1225714,35.7780488 23.2080718,35.9890054 C22.0106692,36.2592935 20.7672127,36.3911413 19.5237562,36.3911414 C17.2539547,36.3911414 15.0499445,35.9428586 12.977517,35.0660704 C11.9840676,34.6441573 11.0169348,34.1233582 10.1221725,33.5102657 C9.23398927,32.9037655 8.39186,32.2115643 7.62868036,31.4534391 C6.86550072,30.6887216 6.17469155,29.8514877 5.57599027,28.9549223 C4.96413074,28.0517644 4.44437909,27.0892751 4.02331443,26.0938238 C3.1482895,24.0172201 2.70090833,21.8087685 2.70090833,19.534393 C2.70090833,17.2600175 3.1482895,15.0515659 4.02331443,12.9749621 C4.44437904,11.9795108 4.96413074,11.0104291 5.57599027,10.1138636 C6.18127071,9.22389062 6.87207987,8.38006434 7.62868036,7.61534678 C8.39186,6.85062921 9.22741012,6.15842797 10.1221725,5.55852022 C11.023514,4.95202005 11.9840676,4.42462867 12.977517,4.0027155 C15.0499445,3.12592726 17.2539547,2.67764455 19.5237562,2.67764455 C21.7935577,2.67764455 23.9975679,3.12592726 26.0699954,4.0027155 C27.0634448,4.42462862 28.0305776,4.9454277 28.9253399,5.55852022 C29.8135231,6.16502038 30.6556524,6.85722163 31.418832,7.61534678 C32.1820117,8.38006434 32.8728208,9.21729821 33.4715221,10.1138636 C34.0768025,11.0170215 34.6031333,11.9795108 35.024198,12.9749621 C35.8992229,15.0515659 36.3466041,17.2600175 36.3466041,19.534393 C36.3466041,21.6109967 35.9715934,23.6348613 35.2413094,25.5598399 C34.5570794,27.3463784 33.5833674,28.9944766 32.3399109,30.4579878 L34.3794428,32.1522328 C37.2545247,28.7505581 38.9914163,24.3468397 38.9914163,19.5409853 C38.9914163,8.76242309 30.2740625,0.0275026016 19.5171771,0.0275026558 C8.76029164,0.02750271 0.0429378641,8.76242309 0.0429378641,19.5409853 C0.0429378641,30.3195475 8.76029159,39.054468 19.5171771,39.054468 C22.2212015,39.054468 24.8002224,38.500707 27.1423944,37.4986634 L25.8989379,35.1385867 Z" id="Shape"></path>
            </g>
            <path d="M53.9975928,25.8012821 C53.9975928,26.6773548 54.1468348,27.4252106 54.4453232,28.0448718 C54.7438117,28.664533 55.1595572,29.1720066 55.6925722,29.5673077 C56.2255873,29.9626088 56.8385454,30.2510675 57.5314649,30.4326923 C58.2243845,30.6143171 58.9759244,30.7051282 59.7861073,30.7051282 C60.660252,30.7051282 61.4064618,30.6036335 62.0247593,30.400641 C62.6430567,30.1976486 63.1440834,29.935899 63.5278542,29.6153846 C63.911625,29.2948702 64.1887887,28.9262841 64.3593535,28.5096154 C64.5299183,28.0929466 64.6151994,27.6709423 64.6151994,27.2435897 C64.6151994,26.367517 64.4179868,25.7211559 64.0235557,25.3044872 C63.6291246,24.8878184 63.1973889,24.5940179 62.7283356,24.4230769 C61.9181528,24.1239301 60.9747303,23.8408133 59.8980399,23.5737179 C58.8213495,23.3066226 57.4941619,22.9594038 55.9164374,22.5320513 C54.9356897,22.2756397 54.1201889,21.9391046 53.4699106,21.5224359 C52.8196322,21.1057671 52.3026154,20.6410282 51.9188446,20.1282051 C51.5350737,19.6153821 51.2632401,19.0705157 51.1033356,18.4935897 C50.9434311,17.9166638 50.8634801,17.3290628 50.8634801,16.7307692 C50.8634801,15.5769173 51.1033332,14.5779957 51.5830468,13.7339744 C52.0627603,12.889953 52.6970387,12.1901737 53.485901,11.6346154 C54.2747632,11.0790571 55.1702151,10.6677364 56.1722834,10.400641 C57.1743516,10.1335457 58.187065,10 59.2104539,10 C60.4044076,10 61.5290525,10.154913 62.5844223,10.4647436 C63.6397921,10.7745742 64.5672243,11.2393131 65.3667469,11.8589744 C66.1662695,12.4786356 66.8005479,13.2425168 67.2696011,14.150641 C67.7386543,15.0587652 67.9731774,16.1111051 67.9731774,17.3076923 L63.9755846,17.3076923 C63.8689816,15.833326 63.367955,14.7916697 62.4724897,14.1826923 C61.5770244,13.5737149 60.4363893,13.2692308 59.0505502,13.2692308 C58.581497,13.2692308 58.1017906,13.3173072 57.6114168,13.4134615 C57.1210429,13.5096159 56.673317,13.6698707 56.2682256,13.8942308 C55.8631342,14.1185909 55.5273397,14.423075 55.2608322,14.8076923 C54.9943247,15.1923096 54.8610729,15.673074 54.8610729,16.25 C54.8610729,17.0619699 55.1115862,17.6976473 55.6126204,18.1570513 C56.1136545,18.6164553 56.7692532,18.963674 57.579436,19.1987179 C57.6647184,19.2200856 58.0005129,19.3108966 58.5868294,19.4711538 C59.173146,19.6314111 59.8287447,19.8076913 60.5536451,20 C61.2785456,20.1923087 61.987445,20.3792726 62.6803645,20.5608974 C63.3732841,20.7425223 63.8689806,20.8760679 64.1674691,20.9615385 C64.9136901,21.1965824 65.5639587,21.517092 66.1182944,21.9230769 C66.67263,22.3290619 67.1363461,22.7938008 67.5094567,23.3173077 C67.8825672,23.8408146 68.1597309,24.4017064 68.340956,25 C68.5221811,25.5982936 68.6127923,26.1965782 68.6127923,26.7948718 C68.6127923,28.0769295 68.3516188,29.172004 67.8292641,30.0801282 C67.3069094,30.9882524 66.6193303,31.7307663 65.7665062,32.3076923 C64.9136821,32.8846183 63.9436093,33.3066226 62.8562586,33.5737179 C61.7689079,33.8408133 60.6602532,33.974359 59.5302613,33.974359 C58.2297046,33.974359 57.0037884,33.8141042 55.8524759,33.4935897 C54.7011634,33.1730753 53.6991102,32.6816272 52.8462861,32.0192308 C51.993462,31.3568343 51.311213,30.5074838 50.7995186,29.4711538 C50.2878241,28.4348239 50.0213206,27.2115455 50,25.8012821 L53.9975928,25.8012821 Z M79.1664374,33.8782051 C77.8445601,33.8782051 76.6666145,33.6591902 75.6325653,33.2211538 C74.5985162,32.7831175 73.7243846,32.179491 73.0101444,31.4102564 C72.2959043,30.6410218 71.7522371,29.7222276 71.3791265,28.6538462 C71.006016,27.5854647 70.8194635,26.4102628 70.8194635,25.1282051 C70.8194635,23.8675151 71.006016,22.7029968 71.3791265,21.6346154 C71.7522371,20.566234 72.2959043,19.6474397 73.0101444,18.8782051 C73.7243846,18.1089705 74.5985162,17.5053441 75.6325653,17.0673077 C76.6666145,16.6292713 77.8445601,16.4102564 79.1664374,16.4102564 C80.4883147,16.4102564 81.6662603,16.6292713 82.7003095,17.0673077 C83.7343587,17.5053441 84.6084902,18.1089705 85.3227304,18.8782051 C86.0369706,19.6474397 86.5806377,20.566234 86.9537483,21.6346154 C87.3268588,22.7029968 87.5134113,23.8675151 87.5134113,25.1282051 C87.5134113,26.4102628 87.3268588,27.5854647 86.9537483,28.6538462 C86.5806377,29.7222276 86.0369706,30.6410218 85.3227304,31.4102564 C84.6084902,32.179491 83.7343587,32.7831175 82.7003095,33.2211538 C81.6662603,33.6591902 80.4883147,33.8782051 79.1664374,33.8782051 Z M79.1664374,30.9935897 C79.9766203,30.9935897 80.6801896,30.8226513 81.2771664,30.4807692 C81.8741433,30.1388872 82.3645098,29.6901737 82.7482806,29.1346154 C83.1320514,28.5790571 83.4145452,27.9540633 83.5957703,27.2596154 C83.7769954,26.5651675 83.8676066,25.8547045 83.8676066,25.1282051 C83.8676066,24.4230734 83.7769954,23.7179522 83.5957703,23.0128205 C83.4145452,22.3076888 83.1320514,21.682695 82.7482806,21.1378205 C82.3645098,20.592946 81.8741433,20.1495744 81.2771664,19.8076923 C80.6801896,19.4658103 79.9766203,19.2948718 79.1664374,19.2948718 C78.3562545,19.2948718 77.6526852,19.4658103 77.0557084,19.8076923 C76.4587315,20.1495744 75.9683651,20.592946 75.5845942,21.1378205 C75.2008234,21.682695 74.9183297,22.3076888 74.7371045,23.0128205 C74.5558794,23.7179522 74.4652682,24.4230734 74.4652682,25.1282051 C74.4652682,25.8547045 74.5558794,26.5651675 74.7371045,27.2596154 C74.9183297,27.9540633 75.2008234,28.5790571 75.5845942,29.1346154 C75.9683651,29.6901737 76.4587315,30.1388872 77.0557084,30.4807692 C77.6526852,30.8226513 78.3562545,30.9935897 79.1664374,30.9935897 Z M105.838377,32.5641026 C105.838377,35.0641151 105.140138,36.9284127 103.743638,38.1570513 C102.347139,39.3856899 100.337702,40 97.7152682,40 C96.8837648,40 96.0469437,39.9145308 95.2047799,39.7435897 C94.3626161,39.5726487 93.595086,39.2841901 92.9021664,38.8782051 C92.2092469,38.4722202 91.6282692,37.9380375 91.159216,37.275641 C90.6901627,36.6132446 90.4129991,35.8012869 90.3277166,34.8397436 L93.9735213,34.8397436 C94.0801243,35.3525667 94.2613467,35.7692292 94.5171939,36.0897436 C94.7730412,36.410258 95.0768552,36.6613239 95.4286451,36.8429487 C95.780435,37.0245736 96.1695302,37.1420938 96.5959422,37.1955128 C97.0223543,37.2489319 97.4700802,37.275641 97.9391334,37.275641 C99.4102549,37.275641 100.486929,36.9123968 101.169188,36.1858974 C101.851448,35.4593981 102.192572,34.4124 102.192572,33.0448718 L102.192572,30.5128205 L102.128611,30.5128205 C101.616916,31.4316285 100.918677,32.1474333 100.033872,32.6602564 C99.1490671,33.1730795 98.1949845,33.4294872 97.1715956,33.4294872 C95.8497183,33.4294872 94.7250734,33.1997886 93.7976272,32.7403846 C92.8701811,32.2809806 92.1026509,31.650645 91.4950138,30.849359 C90.8873766,30.0480729 90.4449808,29.1239369 90.1678129,28.0769231 C89.8906451,27.0299093 89.7520633,25.9081256 89.7520633,24.7115385 C89.7520633,23.6004218 89.9226255,22.5427401 90.2637552,21.5384615 C90.6048848,20.534183 91.0952513,19.6527816 91.7348693,18.8942308 C92.3744874,18.13568 93.1580077,17.5320535 94.0854539,17.0833333 C95.0129001,16.6346131 96.062924,16.4102564 97.2355571,16.4102564 C98.2802666,16.4102564 99.2396793,16.6292713 100.113824,17.0673077 C100.987969,17.5053441 101.659557,18.1944397 102.128611,19.1346154 L102.192572,19.1346154 L102.192572,16.8589744 L105.838377,16.8589744 L105.838377,32.5641026 Z M97.747249,30.5448718 C98.5574318,30.5448718 99.2450109,30.3792752 99.8100069,30.0480769 C100.375003,29.7168787 100.833389,29.2788489 101.185179,28.7339744 C101.536969,28.1890998 101.792812,27.5694479 101.952717,26.875 C102.112621,26.1805521 102.192572,25.4807728 102.192572,24.775641 C102.192572,24.0705093 102.107291,23.3867554 101.936726,22.724359 C101.766161,22.0619625 101.504988,21.4743615 101.153198,20.9615385 C100.801408,20.4487154 100.343022,20.0427365 99.7780261,19.7435897 C99.2130302,19.4444429 98.5361112,19.2948718 97.747249,19.2948718 C96.9370661,19.2948718 96.2548171,19.4658103 95.7004814,19.8076923 C95.1461458,20.1495744 94.6984199,20.592946 94.3572902,21.1378205 C94.0161606,21.682695 93.7709774,22.302347 93.6217331,22.9967949 C93.4724889,23.6912428 93.397868,24.3803385 93.397868,25.0641026 C93.397868,25.7478667 93.4831491,26.415595 93.6537139,27.0673077 C93.8242787,27.7190204 94.0854522,28.3012795 94.4372421,28.8141026 C94.789032,29.3269256 95.2367579,29.7435881 95.7804333,30.0641026 C96.3241086,30.384617 96.9797073,30.5448718 97.747249,30.5448718 Z M117.095598,33.8782051 C115.773721,33.8782051 114.595775,33.6591902 113.561726,33.2211538 C112.527677,32.7831175 111.653546,32.179491 110.939305,31.4102564 C110.225065,30.6410218 109.681398,29.7222276 109.308287,28.6538462 C108.935177,27.5854647 108.748624,26.4102628 108.748624,25.1282051 C108.748624,23.8675151 108.935177,22.7029968 109.308287,21.6346154 C109.681398,20.566234 110.225065,19.6474397 110.939305,18.8782051 C111.653546,18.1089705 112.527677,17.5053441 113.561726,17.0673077 C114.595775,16.6292713 115.773721,16.4102564 117.095598,16.4102564 C118.417476,16.4102564 119.595421,16.6292713 120.62947,17.0673077 C121.66352,17.5053441 122.537651,18.1089705 123.251891,18.8782051 C123.966131,19.6474397 124.509799,20.566234 124.882909,21.6346154 C125.25602,22.7029968 125.442572,23.8675151 125.442572,25.1282051 C125.442572,26.4102628 125.25602,27.5854647 124.882909,28.6538462 C124.509799,29.7222276 123.966131,30.6410218 123.251891,31.4102564 C122.537651,32.179491 121.66352,32.7831175 120.62947,33.2211538 C119.595421,33.6591902 118.417476,33.8782051 117.095598,33.8782051 Z M117.095598,30.9935897 C117.905781,30.9935897 118.609351,30.8226513 119.206327,30.4807692 C119.803304,30.1388872 120.293671,29.6901737 120.677442,29.1346154 C121.061212,28.5790571 121.343706,27.9540633 121.524931,27.2596154 C121.706156,26.5651675 121.796768,25.8547045 121.796768,25.1282051 C121.796768,24.4230734 121.706156,23.7179522 121.524931,23.0128205 C121.343706,22.3076888 121.061212,21.682695 120.677442,21.1378205 C120.293671,20.592946 119.803304,20.1495744 119.206327,19.8076923 C118.609351,19.4658103 117.905781,19.2948718 117.095598,19.2948718 C116.285415,19.2948718 115.581846,19.4658103 114.984869,19.8076923 C114.387892,20.1495744 113.897526,20.592946 113.513755,21.1378205 C113.129984,21.682695 112.847491,22.3076888 112.666265,23.0128205 C112.48504,23.7179522 112.394429,24.4230734 112.394429,25.1282051 C112.394429,25.8547045 112.48504,26.5651675 112.666265,27.2596154 C112.847491,27.9540633 113.129984,28.5790571 113.513755,29.1346154 C113.897526,29.6901737 114.387892,30.1388872 114.984869,30.4807692 C115.581846,30.8226513 116.285415,30.9935897 117.095598,30.9935897 Z M143,33.4294872 L139.418157,33.4294872 L139.418157,31.1217949 L139.354195,31.1217949 C138.906463,31.9551324 138.240204,32.6228607 137.355399,33.125 C136.470594,33.6271393 135.569812,33.8782051 134.653026,33.8782051 C132.478325,33.8782051 130.905954,33.3386806 129.935867,32.2596154 C128.965779,31.1805502 128.480743,29.5512929 128.480743,27.3717949 L128.480743,16.8589744 L132.126547,16.8589744 L132.126547,27.0192308 C132.126547,28.4722295 132.403711,29.4978603 132.958047,30.0961538 C133.512382,30.6944474 134.290573,30.9935897 135.292641,30.9935897 C136.060183,30.9935897 136.699791,30.8760696 137.211486,30.6410256 C137.72318,30.4059817 138.138925,30.0908139 138.458735,29.6955128 C138.778544,29.3002117 139.007737,28.8247891 139.14632,28.2692308 C139.284904,27.7136724 139.354195,27.1153878 139.354195,26.474359 L139.354195,16.8589744 L143,16.8589744 L143,33.4294872 Z" id="Sogou-Copy"></path>
        </g>
    </g>
</svg>