<?xml version="1.0" encoding="UTF-8"?>
<svg width="170px" height="48px" viewBox="0 0 170 48" version="1.1" xmlns="http://www.w3.org/2000/svg" xmlns:xlink="http://www.w3.org/1999/xlink">
    <!-- Generator: Sketch 48.2 (47327) - http://www.bohemiancoding.com/sketch -->
    <title>搜狗搜索-深</title>
    <desc>Created with Sketch.</desc>
    <defs></defs>
    <g id="Symbols" stroke="none" stroke-width="1" fill="none" fill-rule="evenodd">
        <g id="搜狗搜索-深" fill="#FFFFFF">
            <g id="搜狗logo" transform="translate(0.000000, 4.000000)" fill-rule="nonzero">
                <path d="M28.4516422,10.1006789 C29.3332463,10.3445974 30.2082712,10.6017007 31.0701379,10.9115431 C31.1425084,12.302538 31.2280372,13.6869405 31.3004076,15.0779354 C29.6687822,14.4186961 27.9779445,13.9044895 26.2673695,13.4825764 C24.1883628,12.9815545 22.0633023,12.6387501 19.9185043,12.6057881 C19.0829542,12.5926034 18.2210875,12.6585273 17.4381704,12.9815545 C17.0236849,13.1595491 16.6091994,13.4232448 16.4184046,13.8517504 C16.2670845,14.1681852 16.3394549,14.5439516 16.5105124,14.8340169 C16.780257,15.2822996 17.2276382,15.5855496 17.6750193,15.8294682 C18.6553104,16.363452 19.760605,16.5875933 20.8395832,16.8578815 C23.0106977,17.3852729 25.1949705,17.9192567 27.2476605,18.8158221 C28.2279516,19.2509201 29.1753471,19.7717191 29.9977389,20.4573279 C30.5306488,20.9056106 31.0043466,21.4395944 31.3464616,22.0460946 C32.1556952,23.4766438 32.1293786,25.3488834 31.2543537,26.7398783 C30.5306488,27.9001394 29.3464045,28.6912266 28.1095272,29.218618 C26.6226428,29.8448953 25.0239129,30.1481454 23.4251832,30.293178 C21.7014498,30.444803 19.9645583,30.4316183 18.2408249,30.2536236 C15.6552249,29.9701507 13.122258,29.3570582 10.6616615,28.5330091 C9.79321573,28.2429438 8.9247699,27.9331014 8.08264068,27.5639274 C7.9905328,26.1399705 7.91816232,24.7160137 7.83263353,23.2920569 C9.33267631,24.0106277 10.8919313,24.5907583 12.490661,25.0390409 C14.6815129,25.6389487 16.9644727,25.9817531 19.2342743,25.8235357 C20.096141,25.7576118 20.9645867,25.6521334 21.8001369,25.4016225 C22.2409389,25.2631823 22.6948992,25.0917801 23.0370142,24.7687528 C23.2278092,24.5973506 23.3528127,24.3270625 23.3067587,24.0633668 C23.2475465,23.7535243 23.0238559,23.5096058 22.7870071,23.3052416 C22.2804137,22.8899209 21.6817124,22.6262251 21.0830112,22.3823066 C20.3658855,22.1317957 19.6356015,21.901062 18.8855801,21.7428446 C17.2934294,21.4066325 15.7012788,21.0770129 14.1354447,20.6287301 C12.490661,20.1408931 10.832719,19.5805397 9.39846763,18.6048656 C8.62870884,18.0774741 7.92474142,17.3918653 7.54973073,16.515077 C7.24051141,15.7965062 7.21419485,14.9922343 7.32604014,14.2275167 C7.4839394,13.1002176 8.03658671,12.0454347 8.82608291,11.227978 C9.62215822,10.3907441 10.6419242,9.79083637 11.707744,9.36892325 C12.9577796,8.88108618 14.2867648,8.62398287 15.6157501,8.5119122 C17.7342315,8.3273252 19.8592921,8.51850461 21.9646152,8.78220027 C24.1620463,9.09204271 26.3265816,9.52714065 28.4516422,10.1006789 Z" id="Shape"></path>
                <path d="M36.5505572,33.9321788 L34.5110255,32.2379339 C34.1623313,32.6532546 33.7938997,33.0553906 33.4123099,33.4377494 C32.5241267,34.3277224 31.5438356,35.1385867 30.5043323,35.8439727 C29.4714081,36.5427664 28.3726926,37.1426741 27.2279231,37.6305112 L28.4779588,39.9839954 C31.609627,38.599593 34.3662845,36.5229892 36.5505572,33.9321788 Z M25.8989379,35.1385867 C25.0239129,35.4945759 24.1225714,35.7780488 23.2080718,35.9890054 C22.0106692,36.2592935 20.7672127,36.3911413 19.5237562,36.3911414 C17.2539547,36.3911414 15.0499445,35.9428586 12.977517,35.0660704 C11.9840676,34.6441573 11.0169348,34.1233582 10.1221725,33.5102657 C9.23398927,32.9037655 8.39186,32.2115643 7.62868036,31.4534391 C6.86550072,30.6887216 6.17469155,29.8514877 5.57599027,28.9549223 C4.96413074,28.0517644 4.44437909,27.0892751 4.02331443,26.0938238 C3.1482895,24.0172201 2.70090833,21.8087685 2.70090833,19.534393 C2.70090833,17.2600175 3.1482895,15.0515659 4.02331443,12.9749621 C4.44437904,11.9795108 4.96413074,11.0104291 5.57599027,10.1138636 C6.18127071,9.22389062 6.87207987,8.38006434 7.62868036,7.61534678 C8.39186,6.85062921 9.22741012,6.15842797 10.1221725,5.55852022 C11.023514,4.95202005 11.9840676,4.42462867 12.977517,4.0027155 C15.0499445,3.12592726 17.2539547,2.67764455 19.5237562,2.67764455 C21.7935577,2.67764455 23.9975679,3.12592726 26.0699954,4.0027155 C27.0634448,4.42462862 28.0305776,4.9454277 28.9253399,5.55852022 C29.8135231,6.16502038 30.6556524,6.85722163 31.418832,7.61534678 C32.1820117,8.38006434 32.8728208,9.21729821 33.4715221,10.1138636 C34.0768025,11.0170215 34.6031333,11.9795108 35.024198,12.9749621 C35.8992229,15.0515659 36.3466041,17.2600175 36.3466041,19.534393 C36.3466041,21.6109967 35.9715934,23.6348613 35.2413094,25.5598399 C34.5570794,27.3463784 33.5833674,28.9944766 32.3399109,30.4579878 L34.3794428,32.1522328 C37.2545247,28.7505581 38.9914163,24.3468397 38.9914163,19.5409853 C38.9914163,8.76242309 30.2740625,0.0275026016 19.5171771,0.0275026558 C8.76029164,0.02750271 0.0429378641,8.76242309 0.0429378641,19.5409853 C0.0429378641,30.3195475 8.76029159,39.054468 19.5171771,39.054468 C22.2212015,39.054468 24.8002224,38.500707 27.1423944,37.4986634 L25.8989379,35.1385867 Z" id="Shape"></path>
            </g>
            <path d="M64.13,18.1 L64.13,20.23 L68.03,20.23 L68.03,9.55 L70.94,9.55 L70.94,20.23 L74.81,20.23 L74.81,18.1 L72.14,18.1 L72.14,15.55 L74.81,15.55 L74.81,13.3 L72.05,13.3 L72.05,10.69 L77.57,10.69 L77.57,22.9 L70.94,22.9 L70.94,24.94 L77.45,24.94 L77.45,27.55 C76.55,29.47 75.08,31.12 73.04,32.53 C74.78,33.22 76.79,33.79 79.01,34.24 L77.84,37.18 C74.69,36.52 71.99,35.59 69.77,34.39 C67.31,35.53 64.34,36.49 60.92,37.21 L59.36,34.39 C62.18,33.91 64.67,33.28 66.77,32.5 C65,31.12 63.62,29.53 62.6,27.73 L61.19,27.73 L61.19,24.94 L68.03,24.94 L68.03,22.9 L61.31,22.9 L61.31,11.53 C62.87,11.17 64.37,10.57 65.87,9.73 L67.58,12.04 C66.62,12.52 65.45,12.97 64.13,13.45 L64.13,15.55 L66.92,15.55 L66.92,18.1 L64.13,18.1 Z M65.96,27.73 C66.98,28.99 68.33,30.1 69.98,31.06 C71.72,30.1 73.07,28.99 74.03,27.73 L65.96,27.73 Z M55.01,36.85 L52.16,36.85 L51.5,33.91 C52.34,34.03 53.18,34.12 53.96,34.12 C54.53,34.12 54.83,33.73 54.83,32.98 L54.83,26.92 C53.87,27.28 52.91,27.61 51.95,27.91 L51.2,24.94 C52.4,24.64 53.63,24.31 54.83,23.89 L54.83,17.77 L51.86,17.77 L51.86,14.8 L54.83,14.8 L54.83,9.52 L57.89,9.52 L57.89,14.8 L60.23,14.8 L60.23,17.77 L57.89,17.77 L57.89,22.66 C58.76,22.24 59.63,21.82 60.5,21.37 L60.5,24.43 C59.63,24.85 58.76,25.27 57.89,25.66 L57.89,33.76 C57.89,35.8 56.93,36.85 55.01,36.85 Z M92.78,19.84 C92.39,20.26 92.03,20.65 91.67,21.01 L89.75,18.52 C92.24,16.03 93.92,12.97 94.82,9.34 L98,9.73 C97.73,10.75 97.43,11.71 97.1,12.61 L107.96,12.61 C107.96,23.68 107.81,30.52 107.51,33.1 C107.15,35.68 105.62,36.97 102.86,36.97 C101.99,36.97 100.49,36.91 98.36,36.79 L97.61,33.94 C99.44,34.06 101,34.12 102.32,34.12 C103.58,34.12 104.33,33.28 104.51,31.63 C104.69,30.1 104.78,24.76 104.84,15.61 L95.75,15.61 C95,16.93 94.16,18.16 93.23,19.3 L102.23,19.3 L102.23,30.25 L92.78,30.25 L92.78,19.84 Z M99.32,27.46 L99.32,22.06 L95.69,22.06 L95.69,27.46 L99.32,27.46 Z M89.36,9.79 L91.91,11.38 C90.83,13.12 89.75,14.59 88.67,15.73 L89.12,16.78 C90.02,19.21 90.5,22.66 90.59,27.16 C90.59,32.05 89.96,34.99 88.73,36.01 C88.01,36.55 87.05,36.82 85.85,36.82 C84.83,36.82 83.99,36.79 83.36,36.76 L82.43,33.85 C83.39,33.97 84.32,34.03 85.19,34.03 C85.97,34.03 86.48,33.85 86.72,33.55 C87.29,32.83 87.59,30.67 87.59,27.01 C87.59,26.23 87.56,25.51 87.53,24.85 C86.15,26.65 84.56,28.18 82.79,29.44 L81.05,26.83 C83.63,25.15 85.67,23.17 87.11,20.89 C86.9,19.81 86.66,18.85 86.36,18.04 C86.33,17.98 86.3,17.92 86.3,17.89 C85.28,18.67 84.11,19.51 82.76,20.41 L81.08,17.68 C82.4,17.05 83.66,16.21 84.86,15.16 C84.05,13.9 83.06,12.79 81.89,11.77 L84.35,9.85 C85.37,10.87 86.27,11.92 87.02,13 C87.83,12.04 88.61,10.99 89.36,9.79 Z M124.13,18.1 L124.13,20.23 L128.03,20.23 L128.03,9.55 L130.94,9.55 L130.94,20.23 L134.81,20.23 L134.81,18.1 L132.14,18.1 L132.14,15.55 L134.81,15.55 L134.81,13.3 L132.05,13.3 L132.05,10.69 L137.57,10.69 L137.57,22.9 L130.94,22.9 L130.94,24.94 L137.45,24.94 L137.45,27.55 C136.55,29.47 135.08,31.12 133.04,32.53 C134.78,33.22 136.79,33.79 139.01,34.24 L137.84,37.18 C134.69,36.52 131.99,35.59 129.77,34.39 C127.31,35.53 124.34,36.49 120.92,37.21 L119.36,34.39 C122.18,33.91 124.67,33.28 126.77,32.5 C125,31.12 123.62,29.53 122.6,27.73 L121.19,27.73 L121.19,24.94 L128.03,24.94 L128.03,22.9 L121.31,22.9 L121.31,11.53 C122.87,11.17 124.37,10.57 125.87,9.73 L127.58,12.04 C126.62,12.52 125.45,12.97 124.13,13.45 L124.13,15.55 L126.92,15.55 L126.92,18.1 L124.13,18.1 Z M125.96,27.73 C126.98,28.99 128.33,30.1 129.98,31.06 C131.72,30.1 133.07,28.99 134.03,27.73 L125.96,27.73 Z M115.01,36.85 L112.16,36.85 L111.5,33.91 C112.34,34.03 113.18,34.12 113.96,34.12 C114.53,34.12 114.83,33.73 114.83,32.98 L114.83,26.92 C113.87,27.28 112.91,27.61 111.95,27.91 L111.2,24.94 C112.4,24.64 113.63,24.31 114.83,23.89 L114.83,17.77 L111.86,17.77 L111.86,14.8 L114.83,14.8 L114.83,9.52 L117.89,9.52 L117.89,14.8 L120.23,14.8 L120.23,17.77 L117.89,17.77 L117.89,22.66 C118.76,22.24 119.63,21.82 120.5,21.37 L120.5,24.43 C119.63,24.85 118.76,25.27 117.89,25.66 L117.89,33.76 C117.89,35.8 116.93,36.85 115.01,36.85 Z M143.66,11.38 L153.41,11.38 L153.41,9.37 L156.59,9.37 L156.59,11.38 L166.34,11.38 L166.34,14.2 L156.59,14.2 L156.59,16.06 L167.93,16.06 L167.93,22.06 L164.87,22.06 L164.87,18.76 L154.61,18.76 L155.78,19.36 C154.22,20.56 152.6,21.61 150.95,22.57 C153.05,22.51 154.82,22.45 156.23,22.39 C157.25,21.67 158.27,20.92 159.35,20.14 L161.84,21.85 C158.9,24.01 155.63,25.81 152,27.22 C155.12,27.1 158.15,26.98 161.15,26.8 C160.61,26.2 160.07,25.6 159.53,25.03 L161.78,23.62 C163.88,25.72 165.5,27.58 166.64,29.17 L164.3,30.82 C163.85,30.16 163.37,29.5 162.86,28.84 C160.73,28.96 158.69,29.08 156.74,29.2 L156.74,34.27 C156.74,36.13 155.75,37.09 153.77,37.09 L151.04,37.09 L150.41,34.21 C151.22,34.33 152,34.42 152.75,34.42 C153.32,34.42 153.62,34.12 153.62,33.52 L153.62,29.35 C150.44,29.5 147.5,29.62 144.8,29.71 L144.17,26.92 C145.07,26.98 145.97,27.01 146.84,27.01 C148.7,26.5 150.65,25.69 152.72,24.55 C151.04,24.61 149.15,24.67 147.11,24.73 L146.51,22.45 C146.93,22.36 147.35,22.18 147.83,21.94 C149.39,21.01 150.89,19.96 152.3,18.76 L145.13,18.76 L145.13,22.03 L142.07,22.03 L142.07,16.06 L153.41,16.06 L153.41,14.2 L143.66,14.2 L143.66,11.38 Z M159.65,30.22 C162.77,31.33 165.59,32.68 168.14,34.24 L166.58,36.7 C163.82,34.93 161,33.55 158.12,32.53 L159.65,30.22 Z M149.72,30.16 L151.52,32.23 C149.18,34 146.3,35.47 142.94,36.61 L141.65,33.88 C144.95,32.95 147.62,31.72 149.72,30.16 Z" id="搜狗搜索"></path>
        </g>
    </g>
</svg>