<?xml version="1.0" encoding="UTF-8"?>
<svg width="133px" height="48px" viewBox="0 0 133 48" version="1.1" xmlns="http://www.w3.org/2000/svg" xmlns:xlink="http://www.w3.org/1999/xlink">
    <!-- Generator: Sketch 48.2 (47327) - http://www.bohemiancoding.com/sketch -->
    <title>Amoazon搜索-浅</title>
    <desc>Created with Sketch.</desc>
    <defs></defs>
    <g id="Symbols" stroke="none" stroke-width="1" fill="none" fill-rule="evenodd">
        <g id="Amoazon搜索-浅" fill-rule="nonzero">
            <g id="亚马逊-copy-2" transform="translate(0.000000, 4.000000)">
                <path d="M83.4216561,5.26878981 L75.3774947,5.26878981 L75.3774947,0.703184713 L90.3787686,0.703184713 L90.3787686,4.83397025 L82.7694268,15.9218683 C82.7694268,15.9218683 85.8131635,16.1392781 87.1176221,16.5740976 C88.8569003,17.0089172 91.0309979,18.095966 91.0309979,18.0959661 L91.0309979,22.6615711 C91.0309979,22.6615711 85.8131635,20.922293 82.9868365,20.922293 C79.5082803,20.922293 74.9426752,22.6615711 74.9426752,22.6615711 L74.9426752,17.6611465 L83.4216561,5.26878981 Z M19.7205945,19.6178344 L17.5464968,17.4437368 L17.5464968,5.05138006 C17.5464968,2.44246287 12.9808917,0.050955414 9.50233548,0.050955414 C4.50191083,0.050955414 0.588535032,3.31210191 0.371125287,7.44288745 L5.58895968,7.44288745 C6.02377924,5.7036093 7.32823783,4.61656051 9.06751592,4.61656051 C10.806794,4.61656051 12.1112527,5.70360936 12.1112527,7.44288745 L12.1112527,9.39957535 L7.76305732,9.39957535 C6.67600847,9.39957535 5.58895968,9.6169851 4.71932057,10.0518046 C0.805944777,11.7910828 -0.933333376,15.9218683 0.588535032,19.4004246 C2.11040344,22.878981 6.45859873,24.4008493 10.3719745,22.6615711 C11.4590234,22.2267516 12.3286624,21.5745223 12.9808917,20.7048832 L15.8072187,23.5312102 L19.7205945,19.6178344 Z M6.67600847,18.5307855 C5.37154987,17.2263269 5.80636943,15.0522293 7.32823777,13.530361 C7.76305732,13.0955414 8.41528662,12.6607219 8.85010618,12.6607218 L12.1112527,12.6607218 L12.1112527,17.4437368 L11.6764331,17.8785562 C10.1545648,19.4004246 7.98046707,19.6178344 6.67600847,18.5307855 Z M72.7685775,19.6178344 L70.5944798,17.4437368 L70.5944798,5.05138006 C70.5944798,2.44246287 66.0288747,0.050955414 62.5503185,0.050955414 C57.5498938,0.050955414 53.636518,3.31210191 53.4191083,7.44288745 L58.6369427,7.44288745 C59.0717622,5.7036093 60.3762208,4.61656051 62.1154989,4.61656051 C63.854777,4.61656051 65.1592357,5.70360936 65.1592357,7.44288745 L65.1592357,9.39957535 L60.5936306,9.39957535 C59.5065817,9.39957535 58.4195329,9.6169851 57.5498938,10.0518046 C53.636518,11.7910828 51.8972399,15.9218683 53.4191083,19.4004246 C54.9409767,22.878981 59.289172,24.4008493 63.2025478,22.6615711 C64.2895966,22.2267516 65.1592357,21.5745223 65.811465,20.7048832 L68.6377919,23.5312102 L72.7685775,19.6178344 Z M59.9414013,18.5307855 C58.6369427,17.2263269 59.0717622,15.0522293 60.5936306,13.530361 C61.0284501,13.0955414 61.6806794,12.6607219 62.1154989,12.6607218 L65.3766454,12.6607218 L65.3766454,17.4437368 L65.1592357,17.6611465 C63.4199575,19.4004246 61.2458599,19.6178344 59.9414013,18.5307855 Z" id="Shape" fill="#221E1F"></path>
                <path d="M43.6356688,0.050955414 C41.2441613,0.050955414 39.2874734,1.57282376 38.4178344,4.18174096 C37.3307855,1.57282376 35.3740976,0.050955414 32.9825903,0.050955414 C30.5910829,0.050955414 28.6343949,2.00764331 27.7647559,4.61656051 L27.7647559,0.703184713 L22.3295117,0.703184713 L22.3295117,23.5312102 L27.7647559,23.5312102 L27.7647559,8.74734605 C27.7647559,6.79065815 29.2866242,5.48619955 31.0259024,5.48619955 C31.8955414,5.48619955 33.4174098,7.0080679 33.4174097,7.87770701 L33.4174097,23.3138004 L38.8526539,23.3138004 L38.8526539,11.1388535 L38.8526539,8.09511675 C39.0700637,6.79065815 40.5919321,5.48619955 41.8963906,5.70360936 C42.9834395,5.70360936 44.2878981,7.22547771 44.2878981,8.31252656 L44.2878981,23.5312102 L49.7231422,23.5312102 L49.7231422,6.13842885 C48.8535032,2.65987261 47.3316348,0.050955414 43.6356688,0.050955414 Z" id="Shape" fill="#221E1F"></path>
                <path d="M49.2883227,6.35583866 L49.2883227,7.22547771 C49.5057325,7.00806796 49.5057325,6.57324841 49.2883227,6.35583866 Z" id="Shape" fill="#221E1F"></path>
                <path d="M124.946921,0.050955414 C122.555414,0.050955414 120.598726,2.00764331 119.729087,4.61656051 L119.729087,0.703184713 L114.293843,0.703184713 L114.293843,23.5312102 L119.729087,23.5312102 L119.729087,8.74734605 C119.729087,6.79065815 121.250955,5.48619955 122.990234,5.48619955 C123.859873,5.48619955 125.381741,7.0080679 125.381741,7.87770701 L125.381741,23.3138004 L130.382166,23.3138004 L130.382166,5.26878981 C130.382166,2.22505306 127.338429,0.050955414 124.946921,0.050955414 Z M102.118896,0.050955414 C96.9010616,0.050955414 92.7702761,5.26878981 92.770276,12.0084925 C92.770276,18.5307855 96.9010615,23.9660297 102.118896,23.9660297 C107.33673,23.9660298 111.467516,18.7481954 111.467516,12.0084925 C111.250106,5.48619955 107.119321,0.050955414 102.118896,0.050955414 Z M104.945223,16.1392782 C104.945223,17.6611465 103.640764,18.9656051 102.118896,18.9656051 L101.901486,18.9656051 C100.379618,18.9656051 99.0751592,17.6611465 99.0751592,16.1392782 L99.0751592,7.66029726 C99.0751592,6.13842892 100.379618,4.83397032 101.901486,4.83397025 L102.118896,4.83397025 C103.640764,4.83397025 104.945223,6.13842885 104.945223,7.66029726 L104.945223,16.1392782 Z" id="Shape" fill="#221E1F"></path>
                <path d="M19.7205945,25.4878981 C19.7205945,25.4878981 34.069639,34.6191083 53.2016985,34.836518 C72.333758,35.0539278 79.2908705,29.4012739 81.0301486,28.9664543 C82.7694267,28.5316348 82.3346072,30.4883227 81.0301486,31.5753715 C79.72569,32.6624204 63.4199575,41.1414013 50.5927813,39.8369427 C37.7656052,38.5324841 25.808068,33.3146497 19.5031847,27.0097664 C17.5464968,24.8356688 19.7205945,25.4878981 19.7205945,25.4878981 Z" id="Shape" fill="#F59328"></path>
                <path d="M75.8123142,27.2271762 C75.8123142,27.2271762 83.6390658,25.7053079 84.2912951,27.2271762 C84.9435244,28.7490446 82.7694268,34.4016985 81.8997877,35.9235669 C81.2475584,37.0106157 82.7694268,37.2280255 83.4216561,36.5757962 C84.0738854,35.7061571 87.7698514,31.140552 87.3350318,26.1401274 C87.3350318,24.4008492 86.0305732,23.9660297 83.6390658,23.9660297 C82.1171975,23.9660297 76.8993631,25.0530786 74.9426752,26.1401274 C74.7252654,26.3575371 74.5078556,27.444586 75.8123142,27.2271762 Z" id="Shape" fill="#F59328"></path>
            </g>
        </g>
    </g>
</svg>