<?xml version="1.0" encoding="UTF-8"?>
<svg width="170px" height="48px" viewBox="0 0 170 48" version="1.1" xmlns="http://www.w3.org/2000/svg" xmlns:xlink="http://www.w3.org/1999/xlink">
    <!-- Generator: Sketch 48.2 (47327) - http://www.bohemiancoding.com/sketch -->
    <title>必应搜索-浅</title>
    <desc>Created with Sketch.</desc>
    <defs></defs>
    <g id="Symbols" stroke="none" stroke-width="1" fill="none" fill-rule="evenodd">
        <g id="必应搜索-浅" fill="#00A490">
            <path d="M81.5498047,34 L79.1035156,34 L79.1035156,12.5253906 L81.7402344,12.5253906 L81.7402344,20.1865234 C82.8535212,18.7900321 84.2744054,18.0917969 86.0029297,18.0917969 C86.9599657,18.0917969 87.8657184,18.284666 88.7202148,18.6704102 C89.5747113,19.0561543 90.2778293,19.598141 90.8295898,20.2963867 C91.3813504,20.9946324 91.813475,21.8369091 92.1259766,22.8232422 C92.4384781,23.8095752 92.5947266,24.8642522 92.5947266,25.9873047 C92.5947266,28.6533336 91.9355535,30.7138599 90.6171875,32.1689453 C89.2988215,33.6240307 87.7168061,34.3515625 85.8710938,34.3515625 C84.0351471,34.3515625 82.5947318,33.5849686 81.5498047,32.0517578 L81.5498047,34 Z M81.5205078,26.1044922 C81.5205078,27.9697359 81.7744115,29.3173787 82.2822266,30.1474609 C83.1123088,31.5048896 84.2353445,32.1835938 85.6513672,32.1835938 C86.8037167,32.1835938 87.7998005,31.6831105 88.6396484,30.6821289 C89.4794964,29.6811473 89.8994141,28.189463 89.8994141,26.2070312 C89.8994141,24.1757711 89.4965861,22.6767626 88.690918,21.7099609 C87.8852499,20.7431592 86.9111385,20.2597656 85.7685547,20.2597656 C84.6162052,20.2597656 83.6201214,20.7602489 82.7802734,21.7612305 C81.9404255,22.762212 81.5205078,24.2099515 81.5205078,26.1044922 Z M95.8173828,15.5576172 L95.8173828,12.5253906 L98.4541016,12.5253906 L98.4541016,15.5576172 L95.8173828,15.5576172 Z M95.8173828,34 L95.8173828,18.4433594 L98.4541016,18.4433594 L98.4541016,34 L95.8173828,34 Z M102.467773,34 L102.467773,18.4433594 L104.84082,18.4433594 L104.84082,20.6552734 C105.983404,18.9462805 107.633778,18.0917969 109.791992,18.0917969 C110.729497,18.0917969 111.591305,18.2602522 112.377441,18.597168 C113.163578,18.9340837 113.751951,19.3759738 114.142578,19.9228516 C114.533205,20.4697293 114.80664,21.1191369 114.962891,21.8710938 C115.060547,22.3593774 115.109375,23.2138611 115.109375,24.4345703 L115.109375,34 L112.472656,34 L112.472656,24.5371094 C112.472656,23.4628853 112.370118,22.6596706 112.165039,22.1274414 C111.95996,21.5952122 111.596194,21.1704117 111.07373,20.8530273 C110.551267,20.5356429 109.93848,20.3769531 109.235352,20.3769531 C108.112299,20.3769531 107.14307,20.7333949 106.327637,21.4462891 C105.512203,22.1591833 105.104492,23.5117088 105.104492,25.5039062 L105.104492,34 L102.467773,34 Z M118.668945,35.2890625 L121.232422,35.6699219 C121.339844,36.4609415 121.637693,37.0371076 122.125977,37.3984375 C122.780277,37.8867212 123.673822,38.1308594 124.806641,38.1308594 C126.02735,38.1308594 126.969723,37.8867212 127.633789,37.3984375 C128.297855,36.9101538 128.747069,36.2265669 128.981445,35.3476562 C129.118165,34.8105442 129.181641,33.6826258 129.171875,31.9638672 C128.019525,33.3212958 126.583993,34 124.865234,34 C122.726552,34 121.071295,33.2285233 119.899414,31.6855469 C118.727533,30.1425704 118.141602,28.292003 118.141602,26.1337891 C118.141602,24.6494066 118.410154,23.2797914 118.947266,22.0249023 C119.484378,20.7700133 120.263178,19.8007847 121.283691,19.1171875 C122.304204,18.4335903 123.502923,18.0917969 124.879883,18.0917969 C126.715829,18.0917969 128.229486,18.833977 129.420898,20.3183594 L129.420898,18.4433594 L131.852539,18.4433594 L131.852539,31.890625 C131.852539,34.3125121 131.605959,36.0288035 131.112793,37.0395508 C130.619626,38.050298 129.838384,38.8486299 128.769043,39.4345703 C127.699702,40.0205107 126.383797,40.3134766 124.821289,40.3134766 C122.965811,40.3134766 121.466803,39.8960003 120.324219,39.0610352 C119.181635,38.22607 118.629883,36.9687584 118.668945,35.2890625 Z M120.851562,25.9433594 C120.851562,27.9843852 121.256832,29.4736281 122.067383,30.4111328 C122.877934,31.3486375 123.893549,31.8173828 125.114258,31.8173828 C126.325201,31.8173828 127.340816,31.3510789 128.161133,30.418457 C128.981449,29.4858352 129.391602,28.0234475 129.391602,26.03125 C129.391602,24.1269436 128.969243,22.6914111 128.124512,21.7246094 C127.279781,20.7578077 126.261725,20.2744141 125.070312,20.2744141 C123.898432,20.2744141 122.902348,20.7504835 122.082031,21.7026367 C121.261715,22.6547899 120.851562,24.06835 120.851562,25.9433594 Z" id="bing"></path>
            <path d="M45.0131826,6.7394009 L36.0054776,4.02511211 L36.0054776,37.2741166 L45.0131826,29.1314798 L45.0131826,6.7394009 Z M36.0054776,37.2741166 L45.0131826,43.9748879 L66.9945224,30.658296 L66.9945224,20.0842332 L36.0054776,37.2741166 Z" id="Shape" fill-rule="nonzero"></path>
            <polygon id="Shape" fill-rule="nonzero" points="47.619411 13.9771982 51.9246335 23.3073076 57.1780355 25.5295713 66.9945224 20.0842332 47.8457595 13.9771982"></polygon>
        </g>
    </g>
</svg>