<?xml version="1.0" encoding="UTF-8"?>
<svg width="170px" height="48px" viewBox="0 0 170 48" version="1.1" xmlns="http://www.w3.org/2000/svg" xmlns:xlink="http://www.w3.org/1999/xlink">
    <!-- Generator: Sketch 48.2 (47327) - http://www.bohemiancoding.com/sketch -->
    <title>谷歌搜索-浅</title>
    <desc>Created with Sketch.</desc>
    <defs></defs>
    <g id="Symbols" stroke="none" stroke-width="1" fill="none" fill-rule="evenodd">
        <g id="谷歌搜索-浅" fill-rule="nonzero">
            <g id="google-(1)" transform="translate(12.000000, 0.000000)">
                <path d="M62.8649223,25.2441131 C62.8649223,32.1425067 57.4223609,37.2258179 50.7431012,37.2258179 C44.0638415,37.225818 38.62128,32.1425067 38.62128,25.2441131 C38.62128,18.2971012 44.0638415,13.2624083 50.7431012,13.2624083 C57.4223608,13.2624083 62.8649223,18.2971012 62.8649223,25.2441131 Z M57.5585611,25.2441131 C57.5585611,20.9332923 54.4041636,17.9837834 50.7431012,17.9837834 C47.0820387,17.9837834 43.9276413,20.9332923 43.9276413,25.2441131 C43.9276413,29.5117176 47.0820387,32.5044428 50.7431012,32.5044428 C54.4041636,32.5044429 57.5585611,29.5063156 57.5585611,25.2441131 Z" id="Shape" fill="#EA4335"></path>
                <path d="M89.0153681,25.2441131 C89.0153681,32.1425067 83.5728066,37.2258179 76.8935469,37.2258179 C70.2142872,37.225818 64.7717257,32.1425067 64.7717257,25.2441131 C64.7717257,18.3025032 70.2142872,13.2624083 76.8935469,13.2624083 C83.5728066,13.2624083 89.0153681,18.2971012 89.0153681,25.2441131 Z M83.7090068,25.2441131 C83.7090068,20.9332923 80.5546093,17.9837834 76.8935469,17.9837834 C73.2324845,17.9837834 70.078087,20.9332923 70.078087,25.2441131 C70.078087,29.5117176 73.2324845,32.5044428 76.8935469,32.5044428 C80.5546093,32.5044429 83.7090068,29.5063156 83.7090068,25.2441131 Z" id="Shape" fill="#FBBC05"></path>
                <path d="M114.076212,13.9862804 L114.076212,35.497168 C114.076212,44.3456948 108.813435,47.9596535 102.591808,47.9596536 C96.7351975,47.9596536 93.2103354,44.0755933 91.8810211,40.899199 L96.5009331,38.992282 C97.3235826,40.9424153 99.3393461,43.2436805 102.58636,43.2436805 C106.568855,43.2436805 109.036803,40.8073645 109.036803,36.2210401 L109.036803,34.4977922 L108.851571,34.4977922 C107.663905,35.9509386 105.375741,37.2204159 102.488296,37.2204159 C96.446453,37.2204159 90.9112754,32.0020539 90.9112754,25.2873293 C90.9112754,18.5239865 96.446453,13.2624083 102.488296,13.2624083 C105.370293,13.2624083 107.658457,14.5318856 108.851571,15.9418156 L109.036803,15.9418156 L109.036803,13.9916824 L114.076212,13.9916824 L114.076212,13.9862804 Z M109.412716,25.2873293 C109.412716,21.0683431 106.574303,17.9837834 102.962272,17.9837834 C99.30121,17.9837834 96.2339806,21.0683431 96.2339807,25.2873293 C96.2339807,29.4630993 99.3012101,32.5044428 102.962272,32.5044428 C106.574303,32.5044428 109.412716,29.4630993 109.412716,25.2873293 Z" id="Shape" fill="#4285F4"></path>
                <polygon id="Shape" fill="#34A853" points="122.384426 1.37793993 122.384426 36.4911417 117.208817 36.4911417 117.208817 1.37793993"></polygon>
                <path d="M142.552958,29.1875957 L146.671653,31.9102194 C145.342338,33.8603526 142.138909,37.2204159 136.603731,37.2204159 C129.739239,37.2204159 124.612662,31.9588376 124.612662,25.2387111 C124.612662,18.1134321 129.782823,13.2570062 136.009898,13.2570062 C142.280557,13.2570062 145.347786,18.2052666 146.35022,20.879272 L146.900469,22.2405838 L130.747121,28.8742779 C131.983819,31.2781818 133.906967,32.5044428 136.603731,32.5044428 C139.305944,32.5044428 141.180059,31.1863472 142.552958,29.1875957 Z M129.875439,24.8767749 L140.673394,20.4309034 C140.079561,18.9345408 138.292614,17.8919488 136.189682,17.8919488 C133.492918,17.8919488 129.739239,20.2526364 129.875439,24.8767749 Z" id="Shape" fill="#EA4335"></path>
                <path d="M19.0302377,22.1271411 L19.0302377,17.04383 L36.3058759,17.04383 C36.4747642,17.929763 36.5619323,18.9777571 36.5619324,20.1121836 C36.5619324,23.9260175 35.5104666,28.6419906 32.1218046,32.0020539 C28.8257589,35.4053334 24.6144475,37.2204159 19.0356858,37.2204159 C8.69536371,37.2204159 0.000340524004,28.8688759 0.000340524004,18.615821 C0.000340524004,8.36276607 8.69536371,0.0112260789 19.0356858,0.0112260789 C24.7560958,0.0112260789 28.8312069,2.23686285 31.8929882,5.13775353 L28.2755099,8.72470214 C26.0799621,6.68273443 23.1053489,5.09453727 19.0302377,5.09453732 C11.4792965,5.09453732 5.57365422,11.128606 5.57365422,18.615821 C5.57365422,26.103036 11.4792965,32.1371047 19.0302377,32.1371047 C23.9279983,32.1371047 26.7173792,30.1869715 28.5043263,28.4151053 C29.9534968,26.978165 30.9068985,24.9253932 31.2828112,22.1217391 L19.0302377,22.1271411 Z" id="Shape" fill="#4285F4"></path>
            </g>
        </g>
    </g>
</svg>