<?xml version="1.0" encoding="UTF-8"?>
<svg width="304px" height="48px" viewBox="0 0 304 48" version="1.1" xmlns="http://www.w3.org/2000/svg" xmlns:xlink="http://www.w3.org/1999/xlink">
    <!-- Generator: Sketch 48.2 (47327) - http://www.bohemiancoding.com/sketch -->
    <title>购物英文搜索-深</title>
    <desc>Created with Sketch.</desc>
    <defs></defs>
    <g id="Symbols" stroke="none" stroke-width="1" fill="none" fill-rule="evenodd">
        <g id="购物英文搜索-深" fill="#FFFFFF">
            <g id="搜索" transform="translate(0.000000, 4.000000)" fill-rule="nonzero">
                <path d="M27.9962387,8.36238258 C22.5779347,2.94407852 13.7806882,2.94407852 8.36238414,8.36238258 C2.94408008,13.7806866 2.94408008,22.5779331 8.36238414,27.9962372 C13.7806882,33.4145412 22.5779347,33.4145412 27.9962387,27.9962372 C33.4145428,22.5779331 33.4145428,13.7806866 27.9962387,8.36238258 Z M5.32333535,31.0152922 C-1.77444305,23.9175138 -1.77444305,12.4211122 5.32333535,5.32333379 C12.4211137,-1.77444461 23.9175154,-1.77444461 31.0152938,5.32333379 C38.1130722,12.4211122 38.1130722,23.9175138 31.0152938,31.0152922 C23.9175154,38.1130706 12.4211138,38.1130706 5.32333535,31.0152922 Z M39.2527155,39.2727077 C38.2930159,40.2324073 36.7135102,40.252401 35.7538106,39.2727077 L32.2549058,35.7738028 C31.2952062,34.8141032 31.2952062,33.2345976 32.2549058,32.274898 C33.2146054,31.3151984 34.794111,31.3151984 35.7538106,32.274898 L39.2527155,35.7738028 C40.2324088,36.7135087 40.2324088,38.2930143 39.2527155,39.2727077 C39.2727092,39.2527139 39.2527155,39.2527139 39.2527155,39.2727077 Z" id="Shape"></path>
            </g>
            <path d="M55.0015244,25.8012821 C55.0015244,26.6773548 55.1509131,27.4252106 55.4496951,28.0448718 C55.7484771,28.664533 56.1646315,29.1720066 56.6981707,29.5673077 C57.23171,29.9626088 57.8452709,30.2510675 58.538872,30.4326923 C59.232473,30.6143171 59.984752,30.7051282 60.7957317,30.7051282 C61.6707361,30.7051282 62.4176798,30.6036335 63.0365854,30.400641 C63.6554909,30.1976486 64.1570103,29.935899 64.5411585,29.6153846 C64.9253068,29.2948702 65.202743,28.9262841 65.3734756,28.5096154 C65.5442082,28.0929466 65.6295732,27.6709423 65.6295732,27.2435897 C65.6295732,26.367517 65.4321666,25.7211559 65.0373476,25.3044872 C64.6425285,24.8878184 64.2103682,24.5940179 63.7408537,24.4230769 C62.929874,24.1239301 61.9855237,23.8408133 60.9077744,23.5737179 C59.8300251,23.3066226 58.5015323,22.9594038 56.9222561,22.5320513 C55.9405439,22.2756397 55.1242411,21.9391046 54.4733232,21.5224359 C53.8224053,21.1057671 53.30488,20.6410282 52.9207317,20.1282051 C52.5365834,19.6153821 52.2644825,19.0705157 52.1044207,18.4935897 C51.944359,17.9166638 51.8643293,17.3290628 51.8643293,16.7307692 C51.8643293,15.5769173 52.1044183,14.5779957 52.5846037,13.7339744 C53.064789,12.889953 53.6996912,12.1901737 54.4893293,11.6346154 C55.2789674,11.0790571 56.1752999,10.6677364 57.1783537,10.400641 C58.1814075,10.1335457 59.1951168,10 60.2195122,10 C61.4146401,10 62.5403911,10.154913 63.5967988,10.4647436 C64.6532065,10.7745742 65.5815509,11.2393131 66.3818598,11.8589744 C67.1821686,12.4786356 67.8170708,13.2425168 68.2865854,14.150641 C68.7560999,15.0587652 68.9908537,16.1111051 68.9908537,17.3076923 L64.9893293,17.3076923 C64.8826214,15.833326 64.381102,14.7916697 63.4847561,14.1826923 C62.5884102,13.5737149 61.4466533,13.2692308 60.0594512,13.2692308 C59.5899367,13.2692308 59.1097586,13.3173072 58.6189024,13.4134615 C58.1280463,13.5096159 57.6798801,13.6698707 57.2743902,13.8942308 C56.8689004,14.1185909 56.5327757,14.423075 56.2660061,14.8076923 C55.9992365,15.1923096 55.8658537,15.673074 55.8658537,16.25 C55.8658537,17.0619699 56.1166133,17.6976473 56.6181402,18.1570513 C57.1196671,18.6164553 57.7759106,18.963674 58.5868902,19.1987179 C58.6722565,19.2200856 59.0083812,19.3108966 59.5952744,19.4711538 C60.1821676,19.6314111 60.838411,19.8076913 61.5640244,20 C62.2896378,20.1923087 62.9992343,20.3792726 63.6928354,20.5608974 C64.3864364,20.7425223 64.8826205,20.8760679 65.1814024,20.9615385 C65.9283574,21.1965824 66.5792655,21.517092 67.1341463,21.9230769 C67.6890272,22.3290619 68.1531994,22.7938008 68.5266768,23.3173077 C68.9001543,23.8408146 69.1775906,24.4017064 69.3589939,25 C69.5403972,25.5982936 69.6310976,26.1965782 69.6310976,26.7948718 C69.6310976,28.0769295 69.3696672,29.172004 68.8467988,30.0801282 C68.3239303,30.9882524 67.635675,31.7307663 66.7820122,32.3076923 C65.9283494,32.8846183 64.9573225,33.3066226 63.8689024,33.5737179 C62.7804824,33.8408133 61.6707374,33.974359 60.5396341,33.974359 C59.2377984,33.974359 58.0106765,33.8141042 56.8582317,33.4935897 C55.7057869,33.1730753 54.7027482,32.6816272 53.8490854,32.0192308 C52.9954226,31.3568343 52.3125026,30.5074838 51.8003049,29.4711538 C51.2881072,28.4348239 51.0213416,27.2115455 51,25.8012821 L55.0015244,25.8012821 Z M72.6082317,10.5448718 L76.257622,10.5448718 L76.257622,19.0384615 L76.3216463,19.0384615 C76.7698193,18.2905946 77.4367334,17.6656008 78.3224085,17.1634615 C79.2080837,16.6613223 80.1951165,16.4102564 81.2835366,16.4102564 C83.09757,16.4102564 84.5274338,16.8803372 85.5731707,17.8205128 C86.6189077,18.7606885 87.1417683,20.1709308 87.1417683,22.0512821 L87.1417683,33.4294872 L83.492378,33.4294872 L83.492378,23.0128205 C83.4496949,21.7093952 83.1722587,20.7638918 82.660061,20.1762821 C82.1478633,19.5886723 81.3475664,19.2948718 80.2591463,19.2948718 C79.6402408,19.2948718 79.0853683,19.4070502 78.5945122,19.6314103 C78.1036561,19.8557704 77.6875017,20.1655963 77.3460366,20.5608974 C77.0045715,20.9561986 76.7378058,21.4209375 76.5457317,21.9551282 C76.3536576,22.4893189 76.257622,23.0555526 76.257622,23.6538462 L76.257622,33.4294872 L72.6082317,33.4294872 L72.6082317,10.5448718 Z M98.570122,33.8782051 C97.2469446,33.8782051 96.0678405,33.6591902 95.0327744,33.2211538 C93.9977082,32.7831175 93.122717,32.179491 92.4077744,31.4102564 C91.6928318,30.6410218 91.1486299,29.7222276 90.7751524,28.6538462 C90.401675,27.5854647 90.214939,26.4102628 90.214939,25.1282051 C90.214939,23.8675151 90.401675,22.7029968 90.7751524,21.6346154 C91.1486299,20.566234 91.6928318,19.6474397 92.4077744,18.8782051 C93.122717,18.1089705 93.9977082,17.5053441 95.0327744,17.0673077 C96.0678405,16.6292713 97.2469446,16.4102564 98.570122,16.4102564 C99.8932993,16.4102564 101.072403,16.6292713 102.10747,17.0673077 C103.142536,17.5053441 104.017527,18.1089705 104.73247,18.8782051 C105.447412,19.6474397 105.991614,20.566234 106.365091,21.6346154 C106.738569,22.7029968 106.925305,23.8675151 106.925305,25.1282051 C106.925305,26.4102628 106.738569,27.5854647 106.365091,28.6538462 C105.991614,29.7222276 105.447412,30.6410218 104.73247,31.4102564 C104.017527,32.179491 103.142536,32.7831175 102.10747,33.2211538 C101.072403,33.6591902 99.8932993,33.8782051 98.570122,33.8782051 Z M98.570122,30.9935897 C99.3811016,30.9935897 100.085363,30.8226513 100.682927,30.4807692 C101.280491,30.1388872 101.77134,29.6901737 102.155488,29.1346154 C102.539636,28.5790571 102.822408,27.9540633 103.003811,27.2596154 C103.185214,26.5651675 103.275915,25.8547045 103.275915,25.1282051 C103.275915,24.4230734 103.185214,23.7179522 103.003811,23.0128205 C102.822408,22.3076888 102.539636,21.682695 102.155488,21.1378205 C101.77134,20.592946 101.280491,20.1495744 100.682927,19.8076923 C100.085363,19.4658103 99.3811016,19.2948718 98.570122,19.2948718 C97.7591423,19.2948718 97.054881,19.4658103 96.4573171,19.8076923 C95.8597531,20.1495744 95.3689044,20.592946 94.9847561,21.1378205 C94.6006078,21.682695 94.3178363,22.3076888 94.1364329,23.0128205 C93.9550296,23.7179522 93.8643293,24.4230734 93.8643293,25.1282051 C93.8643293,25.8547045 93.9550296,26.5651675 94.1364329,27.2596154 C94.3178363,27.9540633 94.6006078,28.5790571 94.9847561,29.1346154 C95.3689044,29.6901737 95.8597531,30.1388872 96.4573171,30.4807692 C97.054881,30.8226513 97.7591423,30.9935897 98.570122,30.9935897 Z M110.0625,16.8589744 L113.519817,16.8589744 L113.519817,19.1025641 L113.583841,19.1025641 C114.096039,18.1410208 114.810971,17.4519252 115.728659,17.0352564 C116.646346,16.6185877 117.638714,16.4102564 118.705793,16.4102564 C120.007628,16.4102564 121.14405,16.639955 122.115091,17.099359 C123.086133,17.558763 123.891765,18.1890986 124.532012,18.9903846 C125.172259,19.7916707 125.652437,20.7264904 125.972561,21.7948718 C126.292685,22.8632532 126.452744,24.0064042 126.452744,25.224359 C126.452744,26.3354756 126.30869,27.4145247 126.020579,28.4615385 C125.732468,29.5085522 125.294972,30.4326883 124.708079,31.2339744 C124.121186,32.0352604 123.379578,32.6762796 122.483232,33.1570513 C121.586886,33.6378229 120.530494,33.8782051 119.314024,33.8782051 C118.780485,33.8782051 118.246954,33.8301287 117.713415,33.7339744 C117.179875,33.63782 116.667685,33.4829071 116.176829,33.2692308 C115.685973,33.0555545 115.232472,32.7831213 114.816311,32.4519231 C114.40015,32.1207248 114.053355,31.7307715 113.775915,31.2820513 L113.71189,31.2820513 L113.71189,39.5512821 L110.0625,39.5512821 L110.0625,16.8589744 Z M122.803354,25.1602564 C122.803354,24.4123894 122.707318,23.685901 122.515244,22.9807692 C122.32317,22.2756375 122.035063,21.6506437 121.650915,21.1057692 C121.266766,20.5608947 120.786588,20.1228649 120.210366,19.7916667 C119.634143,19.4604684 118.972565,19.2948718 118.22561,19.2948718 C116.689017,19.2948718 115.531254,19.8290545 114.752287,20.8974359 C113.973319,21.9658173 113.583841,23.3867433 113.583841,25.1602564 C113.583841,25.9935939 113.685212,26.7681588 113.887957,27.4839744 C114.090702,28.1997899 114.394815,28.8141 114.800305,29.3269231 C115.205795,29.8397462 115.691308,30.245725 116.25686,30.5448718 C116.822411,30.8440186 117.478655,30.9935897 118.22561,30.9935897 C119.057931,30.9935897 119.762192,30.8226513 120.338415,30.4807692 C120.914637,30.1388872 121.38948,29.6955155 121.762957,29.150641 C122.136435,28.6057665 122.4032,27.9861146 122.563262,27.2916667 C122.723324,26.5972187 122.803354,25.8867558 122.803354,25.1602564 Z M129.621951,16.8589744 L133.079268,16.8589744 L133.079268,19.1025641 L133.143293,19.1025641 C133.65549,18.1410208 134.370422,17.4519252 135.28811,17.0352564 C136.205797,16.6185877 137.198165,16.4102564 138.265244,16.4102564 C139.56708,16.4102564 140.703501,16.639955 141.674543,17.099359 C142.645584,17.558763 143.451216,18.1890986 144.091463,18.9903846 C144.731711,19.7916707 145.211889,20.7264904 145.532012,21.7948718 C145.852136,22.8632532 146.012195,24.0064042 146.012195,25.224359 C146.012195,26.3354756 145.868142,27.4145247 145.58003,28.4615385 C145.291919,29.5085522 144.854424,30.4326883 144.26753,31.2339744 C143.680637,32.0352604 142.939029,32.6762796 142.042683,33.1570513 C141.146337,33.6378229 140.089945,33.8782051 138.873476,33.8782051 C138.339936,33.8782051 137.806405,33.8301287 137.272866,33.7339744 C136.739327,33.63782 136.227137,33.4829071 135.73628,33.2692308 C135.245424,33.0555545 134.791923,32.7831213 134.375762,32.4519231 C133.959602,32.1207248 133.612806,31.7307715 133.335366,31.2820513 L133.271341,31.2820513 L133.271341,39.5512821 L129.621951,39.5512821 L129.621951,16.8589744 Z M142.362805,25.1602564 C142.362805,24.4123894 142.266769,23.685901 142.074695,22.9807692 C141.882621,22.2756375 141.594514,21.6506437 141.210366,21.1057692 C140.826218,20.5608947 140.346039,20.1228649 139.769817,19.7916667 C139.193595,19.4604684 138.532016,19.2948718 137.785061,19.2948718 C136.248468,19.2948718 135.090705,19.8290545 134.311738,20.8974359 C133.53277,21.9658173 133.143293,23.3867433 133.143293,25.1602564 C133.143293,25.9935939 133.244664,26.7681588 133.447409,27.4839744 C133.650153,28.1997899 133.954266,28.8141 134.359756,29.3269231 C134.765246,29.8397462 135.250759,30.245725 135.816311,30.5448718 C136.381863,30.8440186 137.038106,30.9935897 137.785061,30.9935897 C138.617382,30.9935897 139.321643,30.8226513 139.897866,30.4807692 C140.474088,30.1388872 140.948931,29.6955155 141.322409,29.150641 C141.695886,28.6057665 141.962652,27.9861146 142.122713,27.2916667 C142.282775,26.5972187 142.362805,25.8867558 142.362805,25.1602564 Z M149.181402,10.5448718 L152.830793,10.5448718 L152.830793,14.0064103 L149.181402,14.0064103 L149.181402,10.5448718 Z M149.181402,16.8589744 L152.830793,16.8589744 L152.830793,33.4294872 L149.181402,33.4294872 L149.181402,16.8589744 Z M156.800305,16.8589744 L160.257622,16.8589744 L160.257622,19.2948718 L160.321646,19.3589744 C160.876527,18.4401663 161.60213,17.7190197 162.498476,17.1955128 C163.394822,16.6720059 164.38719,16.4102564 165.47561,16.4102564 C167.289643,16.4102564 168.719507,16.8803372 169.765244,17.8205128 C170.810981,18.7606885 171.333841,20.1709308 171.333841,22.0512821 L171.333841,33.4294872 L167.684451,33.4294872 L167.684451,23.0128205 C167.641768,21.7093952 167.364332,20.7638918 166.852134,20.1762821 C166.339936,19.5886723 165.53964,19.2948718 164.45122,19.2948718 C163.832314,19.2948718 163.277441,19.4070502 162.786585,19.6314103 C162.295729,19.8557704 161.879575,20.1655963 161.53811,20.5608974 C161.196645,20.9561986 160.929879,21.4209375 160.737805,21.9551282 C160.545731,22.4893189 160.449695,23.0555526 160.449695,23.6538462 L160.449695,33.4294872 L156.800305,33.4294872 L156.800305,16.8589744 Z M190.477134,32.5641026 C190.477134,35.0641151 189.778208,36.9284127 188.380335,38.1570513 C186.982463,39.3856899 184.97105,40 182.346037,40 C181.513715,40 180.676071,39.9145308 179.833079,39.7435897 C178.990087,39.5726487 178.221802,39.2841901 177.528201,38.8782051 C176.8346,38.4722202 176.253051,37.9380375 175.783537,37.275641 C175.314022,36.6132446 175.036586,35.8012869 174.95122,34.8397436 L178.60061,34.8397436 C178.707318,35.3525667 178.888718,35.7692292 179.144817,36.0897436 C179.400916,36.410258 179.705029,36.6613239 180.057165,36.8429487 C180.409301,37.0245736 180.798778,37.1420938 181.22561,37.1955128 C181.652441,37.2489319 182.100607,37.275641 182.570122,37.275641 C184.04269,37.275641 185.120423,36.9123968 185.803354,36.1858974 C186.486284,35.4593981 186.827744,34.4124 186.827744,33.0448718 L186.827744,30.5128205 L186.76372,30.5128205 C186.251522,31.4316285 185.552596,32.1474333 184.666921,32.6602564 C183.781246,33.1730795 182.826225,33.4294872 181.801829,33.4294872 C180.478652,33.4294872 179.352901,33.1997886 178.424543,32.7403846 C177.496184,32.2809806 176.727899,31.650645 176.119665,30.849359 C175.51143,30.0480729 175.068599,29.1239369 174.791159,28.0769231 C174.513718,27.0299093 174.375,25.9081256 174.375,24.7115385 C174.375,23.6004218 174.54573,22.5427401 174.887195,21.5384615 C175.22866,20.534183 175.719509,19.6527816 176.359756,18.8942308 C177.000003,18.13568 177.784294,17.5320535 178.712652,17.0833333 C179.641011,16.6346131 180.692067,16.4102564 181.865854,16.4102564 C182.911591,16.4102564 183.871947,16.6292713 184.746951,17.0673077 C185.621956,17.5053441 186.294205,18.1944397 186.76372,19.1346154 L186.827744,19.1346154 L186.827744,16.8589744 L190.477134,16.8589744 L190.477134,32.5641026 Z M182.378049,30.5448718 C183.189028,30.5448718 183.877284,30.3792752 184.442835,30.0480769 C185.008387,29.7168787 185.467224,29.2788489 185.81936,28.7339744 C186.171496,28.1890998 186.427591,27.5694479 186.587652,26.875 C186.747714,26.1805521 186.827744,25.4807728 186.827744,24.775641 C186.827744,24.0705093 186.742379,23.3867554 186.571646,22.724359 C186.400914,22.0619625 186.139483,21.4743615 185.787348,20.9615385 C185.435212,20.4487154 184.976375,20.0427365 184.410823,19.7435897 C183.845272,19.4444429 183.167687,19.2948718 182.378049,19.2948718 C181.567069,19.2948718 180.884149,19.4658103 180.329268,19.8076923 C179.774387,20.1495744 179.326221,20.592946 178.984756,21.1378205 C178.643291,21.682695 178.397867,22.302347 178.248476,22.9967949 C178.099085,23.6912428 178.02439,24.3803385 178.02439,25.0641026 C178.02439,25.7478667 178.109755,26.415595 178.280488,27.0673077 C178.45122,27.7190204 178.712651,28.3012795 179.064787,28.8141026 C179.416922,29.3269256 179.865089,29.7435881 180.409299,30.0641026 C180.953509,30.384617 181.609752,30.5448718 182.378049,30.5448718 Z M206.195122,25.8012821 C206.195122,26.6773548 206.344511,27.4252106 206.643293,28.0448718 C206.942075,28.664533 207.358229,29.1720066 207.891768,29.5673077 C208.425308,29.9626088 209.038868,30.2510675 209.73247,30.4326923 C210.426071,30.6143171 211.17835,30.7051282 211.989329,30.7051282 C212.864334,30.7051282 213.611277,30.6036335 214.230183,30.400641 C214.849088,30.1976486 215.350608,29.935899 215.734756,29.6153846 C216.118904,29.2948702 216.396341,28.9262841 216.567073,28.5096154 C216.737806,28.0929466 216.823171,27.6709423 216.823171,27.2435897 C216.823171,26.367517 216.625764,25.7211559 216.230945,25.3044872 C215.836126,24.8878184 215.403966,24.5940179 214.934451,24.4230769 C214.123472,24.1239301 213.179121,23.8408133 212.101372,23.5737179 C211.023623,23.3066226 209.69513,22.9594038 208.115854,22.5320513 C207.134141,22.2756397 206.317839,21.9391046 205.666921,21.5224359 C205.016003,21.1057671 204.498478,20.6410282 204.114329,20.1282051 C203.730181,19.6153821 203.45808,19.0705157 203.298018,18.4935897 C203.137957,17.9166638 203.057927,17.3290628 203.057927,16.7307692 C203.057927,15.5769173 203.298016,14.5779957 203.778201,13.7339744 C204.258387,12.889953 204.893289,12.1901737 205.682927,11.6346154 C206.472565,11.0790571 207.368897,10.6677364 208.371951,10.400641 C209.375005,10.1335457 210.388714,10 211.41311,10 C212.608238,10 213.733989,10.154913 214.790396,10.4647436 C215.846804,10.7745742 216.775148,11.2393131 217.575457,11.8589744 C218.375766,12.4786356 219.010668,13.2425168 219.480183,14.150641 C219.949697,15.0587652 220.184451,16.1111051 220.184451,17.3076923 L216.182927,17.3076923 C216.076219,15.833326 215.5747,14.7916697 214.678354,14.1826923 C213.782008,13.5737149 212.640251,13.2692308 211.253049,13.2692308 C210.783534,13.2692308 210.303356,13.3173072 209.8125,13.4134615 C209.321644,13.5096159 208.873478,13.6698707 208.467988,13.8942308 C208.062498,14.1185909 207.726373,14.423075 207.459604,14.8076923 C207.192834,15.1923096 207.059451,15.673074 207.059451,16.25 C207.059451,17.0619699 207.310211,17.6976473 207.811738,18.1570513 C208.313265,18.6164553 208.969508,18.963674 209.780488,19.1987179 C209.865854,19.2200856 210.201979,19.3108966 210.788872,19.4711538 C211.375765,19.6314111 212.032009,19.8076913 212.757622,20 C213.483235,20.1923087 214.192832,20.3792726 214.886433,20.5608974 C215.580034,20.7425223 216.076218,20.8760679 216.375,20.9615385 C217.121955,21.1965824 217.772863,21.517092 218.327744,21.9230769 C218.882625,22.3290619 219.346797,22.7938008 219.720274,23.3173077 C220.093752,23.8408146 220.371188,24.4017064 220.552591,25 C220.733995,25.5982936 220.824695,26.1965782 220.824695,26.7948718 C220.824695,28.0769295 220.563265,29.172004 220.040396,30.0801282 C219.517528,30.9882524 218.829273,31.7307663 217.97561,32.3076923 C217.121947,32.8846183 216.15092,33.3066226 215.0625,33.5737179 C213.97408,33.8408133 212.864335,33.974359 211.733232,33.974359 C210.431396,33.974359 209.204274,33.8141042 208.051829,33.4935897 C206.899384,33.1730753 205.896346,32.6816272 205.042683,32.0192308 C204.18902,31.3568343 203.5061,30.5074838 202.993902,29.4711538 C202.481705,28.4348239 202.214939,27.2115455 202.193598,25.8012821 L206.195122,25.8012821 Z M235.166159,23.6858974 C235.123475,23.1089715 235.000763,22.5534215 234.798018,22.0192308 C234.595273,21.4850401 234.317837,21.0203011 233.965701,20.625 C233.613565,20.2296989 233.18674,19.9091893 232.685213,19.6634615 C232.183687,19.4177338 231.623479,19.2948718 231.004573,19.2948718 C230.364326,19.2948718 229.782777,19.4070502 229.259909,19.6314103 C228.73704,19.8557704 228.288874,20.1655963 227.915396,20.5608974 C227.541919,20.9561986 227.243141,21.4209375 227.019055,21.9551282 C226.794968,22.4893189 226.672256,23.0662362 226.650915,23.6858974 L235.166159,23.6858974 Z M226.650915,26.0897436 C226.650915,26.7307724 226.741615,27.3504244 226.923018,27.9487179 C227.104422,28.5470115 227.376523,29.0705106 227.739329,29.5192308 C228.102136,29.967951 228.560973,30.3258534 229.115854,30.5929487 C229.670734,30.8600441 230.332313,30.9935897 231.10061,30.9935897 C232.167688,30.9935897 233.026674,30.7638912 233.677591,30.3044872 C234.328509,29.8450832 234.814023,29.1559875 235.134146,28.2371795 L238.591463,28.2371795 C238.399389,29.1346199 238.0686,29.9358939 237.599085,30.6410256 C237.129571,31.3461574 236.564028,31.9391002 235.902439,32.4198718 C235.24085,32.9006434 234.499242,33.2638877 233.677591,33.5096154 C232.855941,33.7553431 231.996956,33.8782051 231.10061,33.8782051 C229.798774,33.8782051 228.646346,33.6645321 227.643293,33.2371795 C226.640239,32.8098269 225.791924,32.2115423 225.098323,31.4423077 C224.404722,30.6730731 223.881862,29.7542788 223.529726,28.6858974 C223.17759,27.617516 223.001524,26.4423141 223.001524,25.1602564 C223.001524,23.9850369 223.18826,22.868595 223.561738,21.8108974 C223.935215,20.7531998 224.468747,19.823722 225.162348,19.0224359 C225.855949,18.2211498 226.693593,17.5854724 227.675305,17.1153846 C228.657017,16.6452968 229.766762,16.4102564 231.004573,16.4102564 C232.306409,16.4102564 233.474842,16.6826896 234.509909,17.2275641 C235.544975,17.7724386 236.40396,18.4935853 237.08689,19.3910256 C237.76982,20.288466 238.266005,21.3194386 238.575457,22.4839744 C238.88491,23.6485101 238.96494,24.8504212 238.815549,26.0897436 L226.650915,26.0897436 Z M255.46189,29.7435897 C255.46189,30.1923099 255.520579,30.5128196 255.637957,30.7051282 C255.755336,30.8974369 255.984754,30.9935897 256.32622,30.9935897 L256.710366,30.9935897 C256.859757,30.9935897 257.030487,30.9722224 257.222561,30.9294872 L257.222561,33.4615385 C257.094512,33.5042737 256.929117,33.5523502 256.726372,33.6057692 C256.523627,33.6591883 256.31555,33.7072647 256.102134,33.75 C255.888718,33.7927353 255.675306,33.8247862 255.46189,33.8461538 C255.248475,33.8675215 255.067074,33.8782051 254.917683,33.8782051 C254.170728,33.8782051 253.551832,33.728634 253.060976,33.4294872 C252.570119,33.1303404 252.250001,32.6068413 252.10061,31.8589744 C251.374996,32.5641061 250.483999,33.0769215 249.427591,33.3974359 C248.371184,33.7179503 247.352139,33.8782051 246.370427,33.8782051 C245.623472,33.8782051 244.90854,33.7767104 244.22561,33.5737179 C243.54268,33.3707255 242.939789,33.0715832 242.416921,32.6762821 C241.894052,32.2809809 241.477898,31.7788492 241.168445,31.1698718 C240.858992,30.5608944 240.704268,29.8504314 240.704268,29.0384615 C240.704268,28.0128154 240.891004,27.1794904 241.264482,26.5384615 C241.637959,25.8974327 242.128808,25.395301 242.737043,25.0320513 C243.345277,24.6688016 244.028197,24.4070521 244.785823,24.2467949 C245.543449,24.0865377 246.306399,23.9636756 247.074695,23.8782051 C247.736284,23.7499994 248.365851,23.6591883 248.963415,23.6057692 C249.560979,23.5523502 250.089175,23.4615391 250.548018,23.3333333 C251.006862,23.2051276 251.369663,23.00748 251.636433,22.7403846 C251.903203,22.4732893 252.036585,22.0726522 252.036585,21.5384615 C252.036585,21.0683737 251.924544,20.6837622 251.700457,20.3846154 C251.476371,20.0854686 251.198935,19.85577 250.86814,19.6955128 C250.537346,19.5352556 250.169209,19.4284191 249.76372,19.375 C249.35823,19.3215809 248.974087,19.2948718 248.61128,19.2948718 C247.586885,19.2948718 246.743906,19.5085449 246.082317,19.9358974 C245.420728,20.36325 245.047257,21.0256365 244.96189,21.9230769 L241.3125,21.9230769 C241.376525,20.8546955 241.63262,19.9679522 242.080793,19.2628205 C242.528966,18.5576888 243.099844,17.9914551 243.793445,17.5641026 C244.487046,17.13675 245.271337,16.8376077 246.146341,16.6666667 C247.021346,16.4957256 247.917678,16.4102564 248.835366,16.4102564 C249.646346,16.4102564 250.446642,16.4957256 251.23628,16.6666667 C252.025919,16.8376077 252.735515,17.1153827 253.365091,17.5 C253.994668,17.8846173 254.501522,18.3814072 254.885671,18.9903846 C255.269819,19.599362 255.46189,20.341876 255.46189,21.2179487 L255.46189,29.7435897 Z M251.8125,25.1282051 C251.257619,25.4914548 250.574699,25.7104697 249.76372,25.7852564 C248.95274,25.8600431 248.141772,25.9722215 247.330793,26.1217949 C246.946644,26.1858978 246.573173,26.2767088 246.210366,26.3942308 C245.847559,26.5117527 245.52744,26.6720075 245.25,26.875 C244.97256,27.0779925 244.753812,27.3450838 244.59375,27.6762821 C244.433688,28.0074803 244.353659,28.4081173 244.353659,28.8782051 C244.353659,29.2841901 244.471035,29.626067 244.705793,29.9038462 C244.94055,30.1816253 245.223322,30.4006402 245.554116,30.5608974 C245.88491,30.7211546 246.247711,30.833333 246.64253,30.8974359 C247.03735,30.9615388 247.394815,30.9935897 247.714939,30.9935897 C248.120429,30.9935897 248.557924,30.9401715 249.027439,30.8333333 C249.496954,30.7264952 249.939785,30.5448731 250.355945,30.2884615 C250.772106,30.03205 251.118901,29.7061986 251.396341,29.3108974 C251.673782,28.9155963 251.8125,28.4294901 251.8125,27.8525641 L251.8125,25.1282051 Z M259.39939,16.8589744 L262.824695,16.8589744 L262.824695,20.0641026 L262.88872,20.0641026 C262.995427,19.6153824 263.203505,19.1773526 263.512957,18.75 C263.82241,18.3226474 264.195882,17.9326941 264.633384,17.5801282 C265.070886,17.2275623 265.5564,16.9444455 266.089939,16.7307692 C266.623478,16.5170929 267.16768,16.4102564 267.722561,16.4102564 C268.149392,16.4102564 268.442835,16.4209401 268.602896,16.4423077 C268.762958,16.4636753 268.928353,16.4850426 269.099085,16.5064103 L269.099085,20.0320513 C268.842987,19.989316 268.581556,19.9519232 268.314787,19.9198718 C268.048017,19.8878204 267.786587,19.8717949 267.530488,19.8717949 C266.911582,19.8717949 266.330033,19.9946569 265.785823,20.2403846 C265.241613,20.4861123 264.76677,20.8493566 264.36128,21.3301282 C263.955791,21.8108998 263.635672,22.4038426 263.400915,23.1089744 C263.166157,23.8141061 263.04878,24.6260638 263.04878,25.5448718 L263.04878,33.4294872 L259.39939,33.4294872 L259.39939,16.8589744 Z M281.839939,22.4038462 C281.690548,21.3782 281.279729,20.6036351 280.60747,20.0801282 C279.93521,19.5566213 279.086895,19.2948718 278.0625,19.2948718 C277.592985,19.2948718 277.091466,19.3749992 276.557927,19.5352564 C276.024388,19.6955136 275.533539,19.9946559 275.085366,20.4326923 C274.637193,20.8707287 274.263721,21.479697 273.964939,22.2596154 C273.666157,23.0395338 273.516768,24.0598228 273.516768,25.3205128 C273.516768,26.0042769 273.596798,26.6880308 273.75686,27.3717949 C273.916922,28.055559 274.173017,28.6645272 274.525152,29.1987179 C274.877288,29.7329087 275.33079,30.1655966 275.885671,30.4967949 C276.440552,30.8279931 277.112801,30.9935897 277.902439,30.9935897 C278.969518,30.9935897 279.849844,30.6623965 280.543445,30 C281.237046,29.3376035 281.669206,28.4081256 281.839939,27.2115385 L285.489329,27.2115385 C285.147864,29.3696689 284.331561,31.0202934 283.040396,32.1634615 C281.749231,33.3066296 280.036596,33.8782051 277.902439,33.8782051 C276.600603,33.8782051 275.453511,33.6591902 274.461128,33.2211538 C273.468745,32.7831175 272.631101,32.1848329 271.948171,31.4262821 C271.26524,30.6677312 270.747715,29.7649625 270.395579,28.7179487 C270.043443,27.6709349 269.867378,26.5384676 269.867378,25.3205128 C269.867378,24.0811904 270.038108,22.9166721 270.379573,21.8269231 C270.721038,20.737174 271.233228,19.7916707 271.916159,18.9903846 C272.599089,18.1890986 273.447403,17.558763 274.461128,17.099359 C275.474853,16.639955 276.664627,16.4102564 278.030488,16.4102564 C278.990858,16.4102564 279.903197,16.5331184 280.76753,16.7788462 C281.631864,17.0245739 282.400149,17.3931599 283.072409,17.8846154 C283.744668,18.3760708 284.294205,18.9957228 284.721037,19.7435897 C285.147868,20.4914567 285.403963,21.3782 285.489329,22.4038462 L281.839939,22.4038462 Z M288.466463,10.5448718 L292.115854,10.5448718 L292.115854,19.0384615 L292.179878,19.0384615 C292.628051,18.2905946 293.294965,17.6656008 294.18064,17.1634615 C295.066315,16.6613223 296.053348,16.4102564 297.141768,16.4102564 C298.955802,16.4102564 300.385666,16.8803372 301.431402,17.8205128 C302.477139,18.7606885 303,20.1709308 303,22.0512821 L303,33.4294872 L299.35061,33.4294872 L299.35061,23.0128205 C299.307927,21.7093952 299.03049,20.7638918 298.518293,20.1762821 C298.006095,19.5886723 297.205798,19.2948718 296.117378,19.2948718 C295.498473,19.2948718 294.9436,19.4070502 294.452744,19.6314103 C293.961888,19.8557704 293.545733,20.1655963 293.204268,20.5608974 C292.862803,20.9561986 292.596038,21.4209375 292.403963,21.9551282 C292.211889,22.4893189 292.115854,23.0555526 292.115854,23.6538462 L292.115854,33.4294872 L288.466463,33.4294872 L288.466463,10.5448718 Z" id="Shopping-Search"></path>
        </g>
    </g>
</svg>