<?xml version="1.0" encoding="UTF-8"?>
<svg width="170px" height="48px" viewBox="0 0 170 48" version="1.1" xmlns="http://www.w3.org/2000/svg" xmlns:xlink="http://www.w3.org/1999/xlink">
    <!-- Generator: Sketch 48.2 (47327) - http://www.bohemiancoding.com/sketch -->
    <title>购物搜索-浅</title>
    <desc>Created with Sketch.</desc>
    <defs></defs>
    <g id="Symbols" stroke="none" stroke-width="1" fill="none" fill-rule="evenodd">
        <g id="购物搜索-浅" fill="#4285F4">
            <g id="搜索" transform="translate(0.000000, 4.000000)" fill-rule="nonzero">
                <path d="M27.9962387,8.36238258 C22.5779347,2.94407852 13.7806882,2.94407852 8.36238414,8.36238258 C2.94408008,13.7806866 2.94408008,22.5779331 8.36238414,27.9962372 C13.7806882,33.4145412 22.5779347,33.4145412 27.9962387,27.9962372 C33.4145428,22.5779331 33.4145428,13.7806866 27.9962387,8.36238258 Z M5.32333535,31.0152922 C-1.77444305,23.9175138 -1.77444305,12.4211122 5.32333535,5.32333379 C12.4211137,-1.77444461 23.9175154,-1.77444461 31.0152938,5.32333379 C38.1130722,12.4211122 38.1130722,23.9175138 31.0152938,31.0152922 C23.9175154,38.1130706 12.4211138,38.1130706 5.32333535,31.0152922 Z M39.2527155,39.2727077 C38.2930159,40.2324073 36.7135102,40.252401 35.7538106,39.2727077 L32.2549058,35.7738028 C31.2952062,34.8141032 31.2952062,33.2345976 32.2549058,32.274898 C33.2146054,31.3151984 34.794111,31.3151984 35.7538106,32.274898 L39.2527155,35.7738028 C40.2324088,36.7135087 40.2324088,38.2930143 39.2527155,39.2727077 C39.2727092,39.2527139 39.2527155,39.2527139 39.2527155,39.2727077 Z" id="Shape"></path>
            </g>
            <path d="M62.93,10.3 L62.93,17.95 C64.55,15.52 65.69,12.64 66.32,9.28 L69.35,9.67 C69.11,10.96 68.78,12.19 68.42,13.36 L77.96,13.36 C77.96,24.04 77.81,30.64 77.54,33.16 C77.24,35.62 75.86,36.88 73.4,36.88 C72.56,36.88 71.12,36.82 69.02,36.73 L68.27,33.94 C70.07,34.03 71.63,34.09 72.95,34.09 C73.91,34.09 74.45,33.34 74.63,31.9 C74.78,30.43 74.87,25.27 74.9,16.39 L67.25,16.39 C66.41,18.16 65.42,19.75 64.28,21.16 L62.93,19.39 L62.93,29.53 L60.17,29.53 L60.17,13.18 L54.86,13.18 L54.86,29.53 L52.04,29.53 L52.04,10.3 L62.93,10.3 Z M71.93,22.63 C72.8,24.97 73.64,27.52 74.48,30.31 L71.93,31.6 C71.75,30.88 71.57,30.22 71.39,29.56 C69.17,30.04 66.74,30.4 64.1,30.67 L63.59,27.94 C64.49,27.64 65.78,24.49 67.49,18.43 L70.34,19.42 C69.26,22.63 68.15,25.39 67.01,27.7 C68.27,27.55 69.47,27.34 70.67,27.07 C70.31,25.9 69.92,24.79 69.56,23.77 L71.93,22.63 Z M56.18,14.95 L58.76,14.95 L58.76,24.79 C58.67,28.15 58.16,30.85 57.23,32.86 C56.33,34.75 54.86,36.19 52.82,37.21 L51.17,34.6 C53.09,33.61 54.41,32.38 55.07,30.94 C55.73,29.35 56.09,27.31 56.18,24.79 L56.18,14.95 Z M60.08,30.22 C61.7,31.75 63.05,33.25 64.19,34.72 L61.94,36.97 C61.04,35.47 59.75,33.88 58.07,32.17 L60.08,30.22 Z M94.61,9.28 L97.55,10.06 C97.25,11.41 96.95,12.67 96.62,13.87 L107.96,13.87 C107.96,24.31 107.81,30.73 107.51,33.13 C107.15,35.71 105.44,37 102.38,37 C101.96,37 101.18,36.94 100.1,36.85 L99.38,34.06 C100.34,34.15 101.15,34.21 101.87,34.21 C103.46,34.21 104.39,33.37 104.63,31.72 C104.81,30.31 104.9,25.36 104.96,16.87 L103.88,16.87 C103.25,21.67 102.38,25.51 101.24,28.33 C99.86,31.51 97.79,34.39 95.09,36.91 L93.14,34.42 C95.6,32.2 97.43,29.74 98.66,26.98 C99.71,24.43 100.52,21.07 101.09,16.87 L99.59,16.87 C98.33,23.23 96.08,27.91 92.81,30.85 L90.8,28.51 C93.68,26.05 95.69,22.18 96.8,16.87 L95.54,16.87 C94.79,18.64 93.92,20.14 92.93,21.34 L90.65,19.39 C92.51,17.05 93.83,13.66 94.61,9.28 Z M84.53,18.31 C84.29,19.72 84.02,21.1 83.69,22.42 L80.93,21.64 C81.74,18.49 82.19,15.16 82.31,11.68 L85.1,11.89 C85.04,13.03 84.98,14.17 84.89,15.31 L86.18,15.31 L86.18,9.4 L89.24,9.4 L89.24,15.31 L91.28,15.31 L91.28,18.31 L89.24,18.31 L89.24,24.31 C89.87,24.01 90.5,23.71 91.16,23.41 L91.16,26.35 C90.5,26.65 89.87,26.92 89.24,27.22 L89.24,37.12 L86.18,37.12 L86.18,28.45 C84.83,28.93 83.45,29.41 82.04,29.83 L81.29,26.8 C82.94,26.47 84.56,26.02 86.18,25.48 L86.18,18.31 L84.53,18.31 Z M124.13,18.1 L124.13,20.23 L128.03,20.23 L128.03,9.55 L130.94,9.55 L130.94,20.23 L134.81,20.23 L134.81,18.1 L132.14,18.1 L132.14,15.55 L134.81,15.55 L134.81,13.3 L132.05,13.3 L132.05,10.69 L137.57,10.69 L137.57,22.9 L130.94,22.9 L130.94,24.94 L137.45,24.94 L137.45,27.55 C136.55,29.47 135.08,31.12 133.04,32.53 C134.78,33.22 136.79,33.79 139.01,34.24 L137.84,37.18 C134.69,36.52 131.99,35.59 129.77,34.39 C127.31,35.53 124.34,36.49 120.92,37.21 L119.36,34.39 C122.18,33.91 124.67,33.28 126.77,32.5 C125,31.12 123.62,29.53 122.6,27.73 L121.19,27.73 L121.19,24.94 L128.03,24.94 L128.03,22.9 L121.31,22.9 L121.31,11.53 C122.87,11.17 124.37,10.57 125.87,9.73 L127.58,12.04 C126.62,12.52 125.45,12.97 124.13,13.45 L124.13,15.55 L126.92,15.55 L126.92,18.1 L124.13,18.1 Z M125.96,27.73 C126.98,28.99 128.33,30.1 129.98,31.06 C131.72,30.1 133.07,28.99 134.03,27.73 L125.96,27.73 Z M115.01,36.85 L112.16,36.85 L111.5,33.91 C112.34,34.03 113.18,34.12 113.96,34.12 C114.53,34.12 114.83,33.73 114.83,32.98 L114.83,26.92 C113.87,27.28 112.91,27.61 111.95,27.91 L111.2,24.94 C112.4,24.64 113.63,24.31 114.83,23.89 L114.83,17.77 L111.86,17.77 L111.86,14.8 L114.83,14.8 L114.83,9.52 L117.89,9.52 L117.89,14.8 L120.23,14.8 L120.23,17.77 L117.89,17.77 L117.89,22.66 C118.76,22.24 119.63,21.82 120.5,21.37 L120.5,24.43 C119.63,24.85 118.76,25.27 117.89,25.66 L117.89,33.76 C117.89,35.8 116.93,36.85 115.01,36.85 Z M143.66,11.38 L153.41,11.38 L153.41,9.37 L156.59,9.37 L156.59,11.38 L166.34,11.38 L166.34,14.2 L156.59,14.2 L156.59,16.06 L167.93,16.06 L167.93,22.06 L164.87,22.06 L164.87,18.76 L154.61,18.76 L155.78,19.36 C154.22,20.56 152.6,21.61 150.95,22.57 C153.05,22.51 154.82,22.45 156.23,22.39 C157.25,21.67 158.27,20.92 159.35,20.14 L161.84,21.85 C158.9,24.01 155.63,25.81 152,27.22 C155.12,27.1 158.15,26.98 161.15,26.8 C160.61,26.2 160.07,25.6 159.53,25.03 L161.78,23.62 C163.88,25.72 165.5,27.58 166.64,29.17 L164.3,30.82 C163.85,30.16 163.37,29.5 162.86,28.84 C160.73,28.96 158.69,29.08 156.74,29.2 L156.74,34.27 C156.74,36.13 155.75,37.09 153.77,37.09 L151.04,37.09 L150.41,34.21 C151.22,34.33 152,34.42 152.75,34.42 C153.32,34.42 153.62,34.12 153.62,33.52 L153.62,29.35 C150.44,29.5 147.5,29.62 144.8,29.71 L144.17,26.92 C145.07,26.98 145.97,27.01 146.84,27.01 C148.7,26.5 150.65,25.69 152.72,24.55 C151.04,24.61 149.15,24.67 147.11,24.73 L146.51,22.45 C146.93,22.36 147.35,22.18 147.83,21.94 C149.39,21.01 150.89,19.96 152.3,18.76 L145.13,18.76 L145.13,22.03 L142.07,22.03 L142.07,16.06 L153.41,16.06 L153.41,14.2 L143.66,14.2 L143.66,11.38 Z M159.65,30.22 C162.77,31.33 165.59,32.68 168.14,34.24 L166.58,36.7 C163.82,34.93 161,33.55 158.12,32.53 L159.65,30.22 Z M149.72,30.16 L151.52,32.23 C149.18,34 146.3,35.47 142.94,36.61 L141.65,33.88 C144.95,32.95 147.62,31.72 149.72,30.16 Z" id="购物搜索"></path>
        </g>
    </g>
</svg>