<?xml version="1.0" encoding="UTF-8"?>
<svg width="170px" height="48px" viewBox="0 0 170 48" version="1.1" xmlns="http://www.w3.org/2000/svg" xmlns:xlink="http://www.w3.org/1999/xlink">
    <!-- Generator: Sketch 48.2 (47327) - http://www.bohemiancoding.com/sketch -->
    <title>多重搜索-浅</title>
    <desc>Created with Sketch.</desc>
    <defs></defs>
    <g id="Symbols" stroke="none" stroke-width="1" fill="none" fill-rule="evenodd">
        <g id="多重搜索-浅" fill="#4285F4">
            <g id="搜索" transform="translate(0.000000, 4.000000)" fill-rule="nonzero">
                <path d="M27.9962387,8.36238258 C22.5779347,2.94407852 13.7806882,2.94407852 8.36238414,8.36238258 C2.94408008,13.7806866 2.94408008,22.5779331 8.36238414,27.9962372 C13.7806882,33.4145412 22.5779347,33.4145412 27.9962387,27.9962372 C33.4145428,22.5779331 33.4145428,13.7806866 27.9962387,8.36238258 Z M5.32333535,31.0152922 C-1.77444305,23.9175138 -1.77444305,12.4211122 5.32333535,5.32333379 C12.4211137,-1.77444461 23.9175154,-1.77444461 31.0152938,5.32333379 C38.1130722,12.4211122 38.1130722,23.9175138 31.0152938,31.0152922 C23.9175154,38.1130706 12.4211138,38.1130706 5.32333535,31.0152922 Z M39.2527155,39.2727077 C38.2930159,40.2324073 36.7135102,40.252401 35.7538106,39.2727077 L32.2549058,35.7738028 C31.2952062,34.8141032 31.2952062,33.2345976 32.2549058,32.274898 C33.2146054,31.3151984 34.794111,31.3151984 35.7538106,32.274898 L39.2527155,35.7738028 C40.2324088,36.7135087 40.2324088,38.2930143 39.2527155,39.2727077 C39.2727092,39.2527139 39.2527155,39.2527139 39.2527155,39.2727077 Z" id="Shape"></path>
            </g>
            <path d="M64.46,9.19 L67.25,10.66 C66.92,11.02 66.59,11.38 66.26,11.71 L74.03,11.71 L74.03,14.14 C70.79,19.9 64.79,23.17 56,23.92 L54.71,21.07 C57.11,20.95 59.27,20.62 61.22,20.14 C60.41,19.15 59.57,18.28 58.73,17.5 L61.43,16.18 C62.39,17.11 63.29,18.1 64.16,19.15 C66.8,18.04 68.9,16.48 70.43,14.47 L62.66,14.47 C60.35,15.82 57.62,16.84 54.47,17.53 L52.64,14.68 C57.92,13.72 61.88,11.89 64.46,9.19 Z M64.25,27.94 C65.27,28.96 66.23,30.07 67.19,31.27 C69.98,30.04 72.23,28.36 73.94,26.23 L65.99,26.23 C63.41,27.43 60.38,28.36 56.87,29.08 L55.04,26.29 C61.58,25.69 66.35,23.77 69.41,20.56 L72.08,22 C71.6,22.48 71.09,22.96 70.55,23.41 L77.99,23.41 L77.99,25.84 C73.67,32.83 65.69,36.49 53.99,36.79 L52.7,33.79 C57.11,33.79 60.95,33.31 64.22,32.35 C63.32,31.21 62.42,30.19 61.49,29.29 L64.25,27.94 Z M84.23,18.07 L93.38,18.07 L93.38,16.78 L82.01,16.78 L82.01,14.14 L93.38,14.14 L93.38,12.7 C90.53,12.82 87.56,12.94 84.44,13.06 L83.93,10.57 C91.7,10.36 98.63,9.97 104.69,9.37 L105.62,11.89 C102.8,12.13 99.74,12.34 96.5,12.52 L96.5,14.14 L107.93,14.14 L107.93,16.78 L96.5,16.78 L96.5,18.07 L105.68,18.07 L105.68,28.51 L96.5,28.51 L96.5,29.92 L106.88,29.92 L106.88,32.38 L96.5,32.38 L96.5,33.85 L108.38,33.85 L108.38,36.52 L81.62,36.52 L81.62,33.85 L93.38,33.85 L93.38,32.38 L83.12,32.38 L83.12,29.92 L93.38,29.92 L93.38,28.51 L84.23,28.51 L84.23,18.07 Z M102.65,26.05 L102.65,24.43 L96.5,24.43 L96.5,26.05 L102.65,26.05 Z M93.38,26.05 L93.38,24.43 L87.26,24.43 L87.26,26.05 L93.38,26.05 Z M87.26,22.09 L93.38,22.09 L93.38,20.53 L87.26,20.53 L87.26,22.09 Z M96.5,20.53 L96.5,22.09 L102.65,22.09 L102.65,20.53 L96.5,20.53 Z M124.13,18.1 L124.13,20.23 L128.03,20.23 L128.03,9.55 L130.94,9.55 L130.94,20.23 L134.81,20.23 L134.81,18.1 L132.14,18.1 L132.14,15.55 L134.81,15.55 L134.81,13.3 L132.05,13.3 L132.05,10.69 L137.57,10.69 L137.57,22.9 L130.94,22.9 L130.94,24.94 L137.45,24.94 L137.45,27.55 C136.55,29.47 135.08,31.12 133.04,32.53 C134.78,33.22 136.79,33.79 139.01,34.24 L137.84,37.18 C134.69,36.52 131.99,35.59 129.77,34.39 C127.31,35.53 124.34,36.49 120.92,37.21 L119.36,34.39 C122.18,33.91 124.67,33.28 126.77,32.5 C125,31.12 123.62,29.53 122.6,27.73 L121.19,27.73 L121.19,24.94 L128.03,24.94 L128.03,22.9 L121.31,22.9 L121.31,11.53 C122.87,11.17 124.37,10.57 125.87,9.73 L127.58,12.04 C126.62,12.52 125.45,12.97 124.13,13.45 L124.13,15.55 L126.92,15.55 L126.92,18.1 L124.13,18.1 Z M125.96,27.73 C126.98,28.99 128.33,30.1 129.98,31.06 C131.72,30.1 133.07,28.99 134.03,27.73 L125.96,27.73 Z M115.01,36.85 L112.16,36.85 L111.5,33.91 C112.34,34.03 113.18,34.12 113.96,34.12 C114.53,34.12 114.83,33.73 114.83,32.98 L114.83,26.92 C113.87,27.28 112.91,27.61 111.95,27.91 L111.2,24.94 C112.4,24.64 113.63,24.31 114.83,23.89 L114.83,17.77 L111.86,17.77 L111.86,14.8 L114.83,14.8 L114.83,9.52 L117.89,9.52 L117.89,14.8 L120.23,14.8 L120.23,17.77 L117.89,17.77 L117.89,22.66 C118.76,22.24 119.63,21.82 120.5,21.37 L120.5,24.43 C119.63,24.85 118.76,25.27 117.89,25.66 L117.89,33.76 C117.89,35.8 116.93,36.85 115.01,36.85 Z M143.66,11.38 L153.41,11.38 L153.41,9.37 L156.59,9.37 L156.59,11.38 L166.34,11.38 L166.34,14.2 L156.59,14.2 L156.59,16.06 L167.93,16.06 L167.93,22.06 L164.87,22.06 L164.87,18.76 L154.61,18.76 L155.78,19.36 C154.22,20.56 152.6,21.61 150.95,22.57 C153.05,22.51 154.82,22.45 156.23,22.39 C157.25,21.67 158.27,20.92 159.35,20.14 L161.84,21.85 C158.9,24.01 155.63,25.81 152,27.22 C155.12,27.1 158.15,26.98 161.15,26.8 C160.61,26.2 160.07,25.6 159.53,25.03 L161.78,23.62 C163.88,25.72 165.5,27.58 166.64,29.17 L164.3,30.82 C163.85,30.16 163.37,29.5 162.86,28.84 C160.73,28.96 158.69,29.08 156.74,29.2 L156.74,34.27 C156.74,36.13 155.75,37.09 153.77,37.09 L151.04,37.09 L150.41,34.21 C151.22,34.33 152,34.42 152.75,34.42 C153.32,34.42 153.62,34.12 153.62,33.52 L153.62,29.35 C150.44,29.5 147.5,29.62 144.8,29.71 L144.17,26.92 C145.07,26.98 145.97,27.01 146.84,27.01 C148.7,26.5 150.65,25.69 152.72,24.55 C151.04,24.61 149.15,24.67 147.11,24.73 L146.51,22.45 C146.93,22.36 147.35,22.18 147.83,21.94 C149.39,21.01 150.89,19.96 152.3,18.76 L145.13,18.76 L145.13,22.03 L142.07,22.03 L142.07,16.06 L153.41,16.06 L153.41,14.2 L143.66,14.2 L143.66,11.38 Z M159.65,30.22 C162.77,31.33 165.59,32.68 168.14,34.24 L166.58,36.7 C163.82,34.93 161,33.55 158.12,32.53 L159.65,30.22 Z M149.72,30.16 L151.52,32.23 C149.18,34 146.3,35.47 142.94,36.61 L141.65,33.88 C144.95,32.95 147.62,31.72 149.72,30.16 Z" id="多重搜索"></path>
        </g>
    </g>
</svg>