<?xml version="1.0" encoding="UTF-8"?>
<svg width="225px" height="48px" viewBox="0 0 225 48" version="1.1" xmlns="http://www.w3.org/2000/svg" xmlns:xlink="http://www.w3.org/1999/xlink">
    <!-- Generator: Sketch 48.2 (47327) - http://www.bohemiancoding.com/sketch -->
    <title>Yahoo搜索-浅</title>
    <desc>Created with Sketch.</desc>
    <defs>
        <linearGradient x1="70.1336478%" y1="8.4081453%" x2="15.0841296%" y2="82.4662018%" id="linearGradient-1">
            <stop stop-color="#1C0044" offset="0%"></stop>
            <stop stop-color="#2F0065" offset="10.005283%"></stop>
            <stop stop-color="#34006D" offset="20.479059%"></stop>
            <stop stop-color="#3B007A" offset="30.000001%"></stop>
            <stop stop-color="#3C007A" offset="40.000001%"></stop>
            <stop stop-color="#490096" offset="50%"></stop>
            <stop stop-color="#5000AB" offset="60.000002%"></stop>
            <stop stop-color="#5400BA" offset="70.02604%"></stop>
            <stop stop-color="#5500BC" offset="80.312496%"></stop>
            <stop stop-color="#5700C2" offset="89.999998%"></stop>
            <stop stop-color="#5C00CE" offset="100%"></stop>
        </linearGradient>
        <path d="M101.877803,4.27257029 C91.6180321,4.27257029 86.4984757,10.7173131 86.4984757,20.0883432 C86.4984757,31.8251542 94.2473617,35.8909953 101.743957,35.8909953 C110.648435,35.8909953 117.031881,30.8572693 117.031881,20.1178671 C117.031881,9.78209129 110.989536,4.27257029 101.877803,4.27257029 L101.877803,4.27257029 L101.877803,4.27257029 Z M101.570935,5.76821439 C101.667364,5.76621802 101.764704,5.76821439 101.86148,5.76821439 C108.63751,5.76821439 113.613884,10.405265 113.613884,20.094902 C113.613884,29.7723026 108.644038,34.4084719 101.874538,34.4084719 C94.4883667,34.4084719 90.1482492,29.0907196 90.1482492,20.1211422 C90.1482492,9.97682857 95.495912,5.89326111 101.570935,5.76821439 L101.570935,5.76821439 L101.570935,5.76821439 Z" id="path-2"></path>
        <path d="M101.841893,3.85930111 C90.7611148,3.85930111 84.947811,10.9181909 84.947811,20.0686635 C84.947811,30.0842681 91.2943533,36.1927482 101.82557,36.1927482 C113.211211,36.1927482 118.771884,29.3085804 118.771884,20.1736209 C118.771884,9.98865704 112.131066,3.85930111 101.841893,3.85930111 L101.841893,3.85930111 L101.841893,3.85930111 Z M101.874538,4.90231482 C110.623467,4.90231482 116.424673,10.1903541 116.424673,20.1145817 C116.424673,30.4263667 110.293877,35.2612508 101.743957,35.2612508 C94.5458585,35.2612508 87.1056828,31.3578212 87.1056828,20.0883432 C87.1056828,11.0904483 92.0232864,4.90231482 101.874538,4.90231482 L101.874538,4.90231482 L101.874538,4.90231482 Z" id="path-3"></path>
        <path d="M140.164533,2.66212464 C129.751744,2.66212464 122.617534,8.57664366 122.617534,20.1047479 C122.617534,31.4135544 129.254612,37.7310252 140.206966,37.7310252 C148.502116,37.7310252 157.590738,33.4505141 157.590738,20.2654591 C157.590738,6.03540437 147.663402,2.66212464 140.164533,2.66212464 L140.164533,2.66212464 L140.164533,2.66212464 Z M140.109029,3.92161365 C148.395572,3.92161365 154.499196,8.97934413 154.499196,20.1342614 C154.499196,32.2602561 147.115918,36.1927482 140.122087,36.1927482 C132.649856,36.1927482 125.842916,31.7870028 125.842916,19.894833 C125.842916,7.56876951 133.387761,3.92161365 140.109029,3.92161365 L140.109029,3.92161365 L140.109029,3.92161365 Z" id="path-4"></path>
        <path d="M140.095972,1.96350709 C129.061121,1.96350709 120.626153,8.25886461 120.626153,19.9637061 C120.626153,29.6073939 126.236846,38.0951008 140.187378,38.0951008 C151.998024,38.0951008 159.709429,31.5712108 159.709429,20.1342614 C159.709429,9.34925597 152.515776,1.96350709 140.095972,1.96350709 L140.095972,1.96350709 L140.095972,1.96350709 Z M140.164533,3.13771843 C147.459494,3.13771843 157.117371,6.42235072 157.117371,20.2654591 C157.117371,33.0919902 148.273283,37.2554417 140.203706,37.2554417 C129.549164,37.2554417 123.094158,31.1093248 123.094158,20.108023 C123.094158,8.89339526 130.034889,3.13771843 140.164533,3.13771843 L140.164533,3.13771843 L140.164533,3.13771843 Z" id="path-5"></path>
    </defs>
    <g id="Symbols" stroke="none" stroke-width="1" fill="none" fill-rule="evenodd">
        <g id="Yahoo搜索-浅">
            <g id="Group-2-Copy" transform="translate(0.000000, 4.253165)" fill="#430096">
                <path d="M28.6239949,23.4940061 L39.7477396,34.6177507 L34.9042641,39.4612262 L23.8453954,28.4023574 C21.4271753,29.973463 18.5416827,30.8860759 15.443038,30.8860759 C6.91408361,30.8860759 0,23.9719923 0,15.443038 C0,6.91408361 6.91408361,0 15.443038,0 C23.9719923,0 30.8860759,6.91408361 30.8860759,15.443038 C30.8860759,18.3929629 30.0589627,21.1497052 28.6239949,23.4940061 Z M15.443038,26.835443 C21.8747085,26.835443 27.0886076,21.6215439 27.0886076,15.1898734 C27.0886076,8.75820291 21.8747085,3.5443038 15.443038,3.5443038 C9.01136747,3.5443038 3.79746835,8.75820291 3.79746835,15.1898734 C3.79746835,21.6215439 9.01136747,26.835443 15.443038,26.835443 Z" id="Combined-Shape"></path>
            </g>
            <g id="yahoo-copy-2" transform="translate(51.000000, 4.000000)">
                <g id="Group">
                    <path d="M171.2091,2.96240791 C171.2091,3.42231126 171.020508,4.06987681 170.894375,4.61720911 C170.015003,8.51184252 166.580772,22.272728 165.134945,31.4576466 L163.804542,30.1209824 L168.038844,1.86810127 L169.020028,0.545206857 C170.332422,0.765669755 171.2091,1.57279344 171.2091,2.96240791 Z" id="Shape" fill="#430096"></path>
                    <path d="M83.4404978,4.28434716 C81.6681934,4.71074763 79.9279535,4.69903445 78.2172054,4.28434716 L80.9333182,7.11819745 L83.4404978,4.28434716 L83.4404978,4.28434716 Z" id="Shape" fill="#430096"></path>
                    <path d="M56.2882643,4.28434716 C58.0605688,4.71074763 59.8008086,4.69903445 61.5115567,4.28434716 L58.7954456,7.11819745 L56.2882643,4.28434716 L56.2882643,4.28434716 Z" id="Shape" fill="#430096"></path>
                    <path d="M40.9574992,4.27327418 C44.9628826,14.4578078 51.266279,29.8732088 54.4070642,35.7650158 L49.757443,34.3375304 L38.2524296,5.43035634 L40.9574992,4.27327418 L40.9574992,4.27327418 Z" id="Shape" fill="#430096"></path>
                    <path d="M37.3154814,4.27245499 C38.5946765,4.70302205 39.6556761,4.72941886 40.9578588,4.27245499 L38.3691154,5.87019099 L37.3154814,4.27245499 L37.3154814,4.27245499 Z" id="Shape" fill="#430096"></path>
                    <path d="M39.1550502,5.38397516 L50.8782245,34.2710514 C50.1846109,35.0257788 49.8752971,35.4217933 49.2009113,35.7748494 C45.8030301,26.9819887 42.1540442,18.1869232 39.0626708,9.50760595 L37.5366574,6.90828262 L39.1550502,5.38397516 L39.1550502,5.38397516 Z" id="Shape" fill="#430096"></path>
                    <path d="M29.0725214,35.7638817 L25.6116823,34.5323536 L37.7978133,5.80622971 L39.1558722,5.38437442 L39.1558722,9.6371755 C37.2609926,15.1305001 32.452201,27.1831608 29.0725214,35.7638817 L29.0725214,35.7638817 L29.0725214,35.7638817 Z" id="Shape" fill="#430096"></path>
                    <path d="M26.2021182,0.0860504202 L27.3512319,2.70998588 L30.2762781,1.34553944 L31.4658002,0.0860504202 C29.5841445,0.514894736 27.8870076,0.529148128 26.2021182,0.0860504202 L26.2021182,0.0860504202 L26.2021182,0.0860504202 Z" id="Shape" fill="#430096"></path>
                    <path d="M17.9493085,22.9667694 L15.9644478,23.7014713 L14.7108614,21.4973655 L27.1423036,1.55545428 L28.0310836,1.24959839 C29.2578623,0.971061782 30.5958798,0.672363563 31.4673761,0.0860504202 C29.4931356,2.76556069 22.3043404,15.2900462 17.9493085,22.9667694 L17.9493085,22.9667694 L17.9493085,22.9667694 Z" id="Shape" fill="#430096"></path>
                    <path d="M15.2331905,22.6518971 L15.7555196,22.12711 L28.0535746,1.24510483 L26.2021182,0.0860504202 C24.717301,2.86471314 19.241008,11.8563436 15.7555196,17.613941 L14.0840597,20.7626636 L15.2331905,22.6518971 L15.2331905,22.6518971 Z" id="Shape" fill="#430096"></path>
                    <path d="M5.30893811,0.0860504202 C8.03528244,4.94046783 12.2204927,11.7315808 15.7555196,17.613941 L15.7555196,22.12711 L14.9197896,22.9667694 L2.69729274,1.13562461 L5.30893811,0.0860504202 L5.30893811,0.0860504202 Z" id="Shape" fill="#430096"></path>
                    <path d="M3.2944091,1.4063616 L5.30893811,0.0860504202 C3.14721552,0.549247785 2.24293342,0.57873038 0.0856473737,0.0860504202 L0.921377317,1.03066719 L3.2944091,1.4063616 L3.2944091,1.4063616 Z" id="Shape" fill="#430096"></path>
                    <path d="M15.7555196,22.12711 L14.8153341,23.4915565 L13.5617306,22.9667694 C11.2278054,18.9138806 4.36705681,6.56782242 0.0856473737,0.0860504202 C0.953512211,0.717894561 2.12600763,1.06461064 3.48019538,1.28557779 L15.7555196,22.12711 L15.7555196,22.12711 Z" id="Shape" fill="#430096"></path>
                    <polygon id="Shape" fill="#430096" points="18.2626923 39.8649136 14.7108614 38.185595 15.0242623 23.2816416 15.7555196 22.12711 17.9493085 22.9667694"></polygon>
                    <polygon id="Shape" fill="#430096" points="15.7555196 38.7103822 13.2483469 39.8649136 13.5617306 22.9667694 15.7555196 22.12711"></polygon>
                    <path d="M23.9038565,35.7715745 C28.2621944,26.845659 33.1087224,14.8759681 37.3152245,4.27073398 L39.1558722,5.38494064 L27.2573795,34.6285254 L24.8440592,35.4567022 L23.9038565,35.7715745 L23.9038565,35.7715745 Z" id="Shape" fill="#430096"></path>
                    <path d="M50.7536437,34.2185724 L54.4111582,35.7661913 C53.0081171,35.4108252 51.1089244,35.2745593 49.2003172,35.7752091 L49.9144142,34.0081983 L50.7536437,34.2185724 L50.7536437,34.2185724 Z" id="Shape" fill="#430096"></path>
                    <path d="M31.0087002,25.4455171 L33.5802456,24.3369141 C37.284443,24.4677331 40.9886403,24.4658555 44.6928347,24.3369141 L47.3013162,25.4779805 L44.8728893,26.0114157 L32.8507868,26.0114157 L31.0087002,25.4455171 L31.0087002,25.4455171 Z" id="Shape" fill="#430096"></path>
                    <path d="M32.7215277,26.5355626 L30.9948424,25.4455171 C36.420278,25.3621497 41.8538675,25.3689408 47.2966979,25.4779805 L45.5700231,26.5355626 C41.28719,26.3961265 37.004359,26.4128254 32.7215277,26.5355626 L32.7215277,26.5355626 L32.7215277,26.5355626 Z" id="Shape" fill="#430096"></path>
                    <path d="M61.5115567,35.7715745 L57.8552533,34.5120854 L57.8552533,6.27853812 L58.8999113,5.75375103 L61.5115567,4.28434716 C60.969635,14.7615124 60.9577608,25.2572973 61.5115567,35.7715745 L61.5115567,35.7715745 L61.5115567,35.7715745 Z" id="Shape" fill="#430096"></path>
                    <path d="M58.8999113,34.3021704 L58.8999113,35.0368726 L56.2882643,35.7715745 C56.7035514,25.2925212 56.7431546,14.798373 56.2882643,4.28434716 L58.8999113,5.75375103 L58.8999113,34.3021704 L58.8999113,34.3021704 Z" id="Shape" fill="#430096"></path>
                    <path d="M78.2172054,35.7715745 L81.8735105,34.5120854 L81.8735105,6.27853812 L80.8288525,5.75375103 L78.2172054,4.28434716 C78.7591271,14.7615124 78.7710013,25.2572973 78.2172054,35.7715745 L78.2172054,35.7715745 L78.2172054,35.7715745 Z" id="Shape" fill="#430096"></path>
                    <path d="M58.9102111,19.9628043 L61.1054905,18.9794356 C66.9393255,19.1271635 72.7800308,19.1161232 78.6261733,18.9794356 L80.8283781,19.9628043 L78.1044764,20.6168253 L61.0870231,20.6168253 L58.9102111,19.9628043 L58.9102111,19.9628043 Z" id="Shape" fill="#430096"></path>
                    <g id="Shape">
                        <use fill="url(#linearGradient-1)" xlink:href="#path-2"></use>
                        <use fill="#430096" xlink:href="#path-2"></use>
                    </g>
                    <g id="Shape">
                        <use fill="url(#linearGradient-1)" xlink:href="#path-3"></use>
                        <use fill="#430096" xlink:href="#path-3"></use>
                    </g>
                    <g id="Shape">
                        <use fill="url(#linearGradient-1)" xlink:href="#path-4"></use>
                        <use fill="#430096" xlink:href="#path-4"></use>
                    </g>
                    <g id="Shape">
                        <use fill="url(#linearGradient-1)" xlink:href="#path-5"></use>
                        <use fill="#430096" xlink:href="#path-5"></use>
                    </g>
                    <path d="M160.56141,37.5729281 C160.56141,36.2187146 161.381071,34.9594151 163.024214,34.9594151 C164.596988,34.9594151 165.773858,35.9044518 165.773858,37.4139378 C165.773858,39.2946077 164.535102,39.9877042 163.400071,39.9877042 C161.830723,39.9877042 160.56141,39.1695506 160.56141,37.5729281 L160.56141,37.5729281 L160.56141,37.5729281 Z" id="Shape" fill="#430096"></path>
                    <path d="M163.185414,31.1572583 C164.459083,22.1121217 165.233822,12.6060854 165.977702,3.12753866 C165.977702,1.23839806 167.220512,0.499529573 168.474508,0.499529573 C168.694284,0.499529573 169.01842,0.545532128 169.01842,0.545532128 L168.67733,2.81133263 L164.210015,30.906053 L163.185414,31.1572583 L163.185414,31.1572583 Z" id="Shape" fill="#430096"></path>
                    <path d="M13.2483469,39.8649136 L15.7601959,38.0159845 L18.2626923,39.8649136 C18.2626923,39.8649136 16.8754275,39.6112854 15.7601445,39.6112854 C14.7538221,39.6112854 13.2483469,39.8649136 13.2483469,39.8649136 L13.2483469,39.8649136 L13.2483469,39.8649136 Z" id="Shape" fill="#430096"></path>
                    <path d="M23.9034626,35.7754689 L27.4073823,34.2534713 C27.9420103,34.8974692 28.4176273,35.4432044 29.0742686,35.7661913 C27.8128712,35.4232528 25.9032431,35.2693859 23.9038565,35.7715435 L23.9034626,35.7754689 L23.9034626,35.7754689 Z" id="Shape" fill="#430096"></path>
                    <path d="M56.2882643,35.7715745 C57.9846046,35.3608662 59.7216414,35.3426975 61.5050268,35.7715745 L58.8999113,34.3021704 L56.2882643,35.7715745 L56.2882643,35.7715745 Z" id="Shape" fill="#430096"></path>
                    <path d="M61.1054905,21.1270647 L58.9055932,19.9628043 C66.2130425,20.0393599 73.5204901,20.0522279 80.8279394,19.9628043 L78.6308926,21.120179 C72.7890923,21.0413361 66.9472907,21.0451034 61.1054905,21.1270974 L61.1054905,21.1270647 L61.1054905,21.1270647 Z" id="Shape" fill="#430096"></path>
                    <path d="M80.8288525,34.3021704 L80.8288525,35.0368726 L83.4404978,35.7715745 C83.0252108,25.2925212 82.9856076,14.798373 83.4404978,4.28434716 L80.8288525,5.75375103 L80.8288525,34.3021704 L80.8288525,34.3021704 Z" id="Shape" fill="#430096"></path>
                    <path d="M83.4404978,35.7715745 C81.7441572,35.3608662 80.0071208,35.3426975 78.223735,35.7715745 L80.8288525,34.3021704 L83.4404978,35.7715745 L83.4404978,35.7715745 Z" id="Shape" fill="#430096"></path>
                    <path d="M164.337652,30.0962222 L163.180171,31.1572583 C163.955735,31.0200165 164.555515,31.2233915 165.138445,31.4594089 L164.337652,30.0962222 L164.337652,30.0962222 Z" id="Shape" fill="#430096"></path>
                </g>
            </g>
        </g>
    </g>
</svg>