<?xml version="1.0" encoding="UTF-8"?>
<svg width="103px" height="48px" viewBox="0 0 103 48" version="1.1" xmlns="http://www.w3.org/2000/svg" xmlns:xlink="http://www.w3.org/1999/xlink">
    <!-- Generator: Sketch 48.2 (47327) - http://www.bohemiancoding.com/sketch -->
    <title>Yandex搜索-浅</title>
    <desc>Created with Sketch.</desc>
    <defs></defs>
    <g id="Symbols" stroke="none" stroke-width="1" fill="none" fill-rule="evenodd">
        <g id="Yandex搜索-浅">
            <g id="Group-Copy-5" transform="translate(0.000000, 4.000000)">
                <path d="M23.9203221,39.7949901 C20.6653958,39.7949901 18.359822,35.5845986 18.359822,31.9174835 C18.359822,28.3861875 19.4447976,23.3608815 24.191566,23.3608815 C27.175249,23.3608815 28.165382,24.175796 28.151144,24.175796 C28.160636,23.6144077 28.165382,23.2578556 28.165382,23.106129 C28.165382,21.4371367 27.7177368,17.7878944 25.2323586,17.7878944 C22.7469805,17.7878944 21.4791269,19.014671 21.4791269,19.014671 L19.6795475,16.5699276 C19.6795475,16.5699276 21.1817821,14.6684605 25.602546,14.6684605 C30.02331,14.6684605 31.1743404,18.6223808 31.3262129,19.7451574 C31.4116412,20.4430997 31.6180914,21.6759817 31.6180914,23.4967006 L31.6180914,39.2517138 L29.2095783,39.2517138 C29.2095783,38.8024628 29.21826,37.9084462 28.8027124,37.3502467 C28.715741,37.233419 28.4366259,37.2144276 28.165382,37.4860657 C28.165382,37.4860657 27.3108709,39.7949901 23.9203221,39.7949901 Z M28.1246027,26.8921776 C27.8533588,26.7563585 26.2258953,26.0772631 25.004593,26.3489013 C23.7832907,26.6205394 22.0216147,27.8790879 22.0216147,31.3742072 C22.0216147,34.8693265 23.5134562,36.6711513 25.2765416,36.6711513 C27.039627,36.6711513 28.1246027,35.1771414 28.1246027,33.8189506 C28.1246027,32.4607598 28.1246027,28.9652124 28.1246027,28.0510549 L28.1246027,26.8921776 Z M36.5331638,39.659171 L36.5331638,15.2117368 L39.5183693,15.2117368 L39.5183693,16.9485548 C39.5183693,16.9485548 41.0086883,15.2117368 44.670481,15.2117368 C49.0103836,15.2117368 49.2816275,18.2291984 49.2816275,19.4881936 L49.2816275,39.659171 L46.0248762,39.659171 L46.0248762,20.9521395 C46.0248762,19.8442237 46.0248762,18.0196961 42.6908977,18.0196961 C40.3305785,18.0196961 39.7899151,19.0796641 39.7899151,21.1343442 L39.7899151,39.659171 L36.5331638,39.659171 Z M65.5638607,39.1350861 C65.5638607,39.1350861 65.4026863,38.4318842 65.1493961,37.9816554 C64.8961058,37.5314267 64.6623856,37.6878426 64.4622464,37.9816554 C63.4820061,39.4206891 62.1715939,39.6734884 60.5309838,39.6734884 C59.250889,39.6734884 57.8028826,39.1500469 56.7294172,38.1031483 C55.6559518,37.0562496 54.5531627,35.5943524 53.9635127,33.7174127 C53.3738627,31.840473 53.0790422,29.6831464 53.0790422,27.2453681 C53.0790422,24.8674127 53.3461446,22.710086 53.8803574,20.7733236 C54.4145702,18.8365611 55.7583652,17.3522307 56.8267908,16.3202877 C57.8952165,15.2883448 59.0896178,14.772381 60.4100306,14.772381 C61.3776613,14.772381 63.8237193,14.6307982 64.2974552,15.6029184 L64.2974552,3.25965789 L67.5462717,3.25965789 L67.5462717,39.1350861 L65.5638607,39.1350861 Z M58.1767042,34.3089351 C59.0435401,35.8837537 60.0665927,36.6711513 61.2458927,36.6711513 C62.4352721,36.6711513 64.2000424,36.6711513 64.2000424,33.8189506 C64.2000424,32.3249407 64.2000424,24.3116151 64.2000424,20.3728618 C64.2000424,17.5206612 62.3647163,17.6564802 61.1249394,17.6564802 C59.915401,17.6564802 58.9049476,18.4204897 58.0935489,19.9485316 C57.2821501,21.4765735 56.8764569,23.8855422 56.8764569,27.1755099 C56.8764569,30.3563318 57.3098683,32.7341164 58.1767042,34.3089351 Z M84.5433355,38.1651611 C84.5433355,38.1651611 82.5090061,39.3875328 78.5517604,39.3875328 C77.0841343,39.3875328 74.7045437,38.5764019 73.4474555,36.4108314 C72.1903674,34.2452608 71.3880059,31.2082256 71.3880059,27.2996348 C71.3880059,23.2552243 72.1972743,20.1163258 73.4681766,17.8828454 C74.7390789,15.6493649 76.3875434,14.5326414 78.4136196,14.5326414 C80.3752296,14.5326414 81.9776476,15.6267286 83.2209216,17.8149358 C84.4641956,20.003143 85.0858233,22.8100399 85.0858233,26.778995 C85.0858233,27.0204524 85.0812186,27.382633 85.0720092,27.8655477 L75.2162284,27.8655477 C75.3083228,30.5064874 75.4054082,31.9967113 76.3125791,34.2037713 C77.7622378,37.7577039 83.7296037,35.9920559 83.7296037,35.9920559 L84.5433355,38.1651611 Z M81.2884086,25.2623486 C81.2884086,23.2250625 81.2089739,21.4238028 80.7820561,20.3270684 C80.1264324,18.6246747 79.5476652,17.7734906 78.5032414,17.7734906 C77.5579234,17.7734906 76.7631821,18.452801 76.1189937,19.8114421 C75.4748052,21.1700833 75.3210426,23.2250625 75.3210426,25.2623486 L81.2884086,25.2623486 Z M86.8745055,39.3875328 L92.2504296,26.6803919 L87.2965876,14.9400987 L90.8426068,14.9400987 C90.8426068,14.9400987 94.0203504,22.9465146 94.2920368,23.6831641 C94.7189726,22.670271 97.5337338,15.2117368 97.5337338,15.2117368 L101.205451,15.2117368 L95.863929,26.7218282 L101.341735,39.3875328 L97.5826901,39.3875328 L93.8368763,30.0137144 L90.3186428,39.3875328 L86.8745055,39.3875328 Z" id="Yandex" fill="#0A0A08"></path>
                <polygon id="Path-19" fill="#D8242A" points="0.32210214 3.53129605 4.39076075 3.53129605 10.6293706 21.4594144 17.4104683 0 21.3458426 0 12.1212121 25.805625 12.1212121 39.1158947 8.59243417 39.1158947 8.59243417 25.3974693"></polygon>
            </g>
        </g>
    </g>
</svg>